<?xml version="1.0" standalone="no"?>
<!DOCTYPE svg PUBLIC "-//W3C//DTD SVG 20010904//EN"
 "http://www.w3.org/TR/2001/REC-SVG-20010904/DTD/svg10.dtd">
<svg version="1.0" xmlns="http://www.w3.org/2000/svg"
 width="900.000000pt" height="900.000000pt" viewBox="0 0 900.000000 900.000000"
 preserveAspectRatio="xMidYMid meet">

<g transform="translate(0.000000,900.000000) scale(0.100000,-0.100000)"
fill="#000000" stroke="none">
<path d="M4676 8535 c4 -38 8 -82 9 -96 2 -14 8 -35 14 -47 8 -16 7 -21 -5
-26 -22 -9 -24 -8 -18 9 4 8 2 15 -4 15 -5 0 -10 -16 -9 -35 1 -19 5 -35 9
-35 4 0 8 -8 8 -17 0 -15 2 -16 10 -3 8 12 10 12 10 -5 1 -18 1 -19 11 -2 5 9
7 22 3 29 -4 7 -3 8 5 4 7 -4 11 -15 10 -24 -3 -31 1 -35 18 -21 15 13 15 12
5 -7 -10 -19 -8 -20 19 -16 17 2 29 0 29 -7 0 -6 -6 -8 -14 -5 -8 3 -17 1 -21
-5 -3 -6 -2 -11 4 -11 5 0 22 -5 38 -12 15 -6 32 -10 36 -9 11 2 31 -20 40
-41 3 -10 13 -18 21 -18 8 0 16 -5 18 -10 2 -6 21 -12 43 -14 35 -2 40 -5 39
-26 -1 -20 0 -21 11 -6 12 16 45 13 45 -5 0 -5 8 -9 18 -9 23 0 59 -26 50 -36
-5 -4 -38 0 -75 9 -38 8 -104 19 -148 22 -95 8 -95 8 -295 106 -190 94 -333
197 -408 295 l-52 67 3 -61 c2 -34 11 -71 20 -86 9 -14 17 -30 17 -36 0 -5 6
-10 14 -10 17 0 77 -70 71 -81 -3 -4 -15 -5 -28 -3 -21 4 -21 4 2 -6 17 -7 27
-7 37 1 11 9 14 8 14 -1 0 -8 3 -10 7 -7 3 4 15 -3 27 -16 12 -12 29 -21 40
-19 14 3 17 0 12 -13 -4 -13 -2 -16 9 -11 8 3 30 -3 48 -14 51 -31 128 -65
180 -79 26 -8 47 -17 47 -21 0 -15 -215 -5 -315 15 -47 10 -129 37 -143 48 -7
6 -23 11 -35 13 -58 6 -378 176 -457 242 -34 29 -34 30 -17 55 l17 26 -50 -2
c-47 -2 -49 -3 -43 -27 3 -14 18 -36 32 -50 15 -14 37 -46 50 -73 12 -26 28
-47 34 -47 7 0 4 -7 -7 -15 -17 -13 -17 -15 -3 -30 11 -11 18 -12 23 -4 5 9
11 7 20 -6 12 -15 16 -16 31 -4 15 11 16 11 6 -1 -19 -20 -16 -41 3 -33 10 4
20 -1 26 -11 5 -9 14 -14 19 -10 6 4 4 13 -7 25 -22 25 -10 25 15 0 14 -14 16
-22 8 -31 -9 -8 -6 -9 14 -1 31 11 69 4 69 -13 0 -6 15 -12 34 -13 19 -1 45
-7 58 -14 13 -7 28 -14 33 -15 25 -4 85 -34 85 -42 0 -13 -195 -14 -280 -2
-66 10 -104 16 -160 24 -8 1 -22 5 -30 8 -8 3 -51 15 -95 27 -44 12 -84 26
-88 30 -5 5 11 41 35 82 35 58 49 74 66 73 12 -1 22 4 22 11 0 7 -13 12 -32
11 -24 -1 -34 -6 -37 -21 -2 -11 -13 -33 -25 -50 -11 -16 -25 -43 -31 -60 -5
-16 -18 -31 -28 -33 -18 -4 -230 98 -255 123 -12 10 -7 15 30 28 l43 15 -35 1
c-19 0 -44 -4 -55 -8 -11 -5 -25 -4 -32 1 -19 15 -17 -38 2 -59 50 -58 75 -92
75 -102 0 -7 5 -9 10 -6 6 3 10 -1 10 -11 0 -12 3 -14 13 -6 16 13 42 -22 31
-41 -4 -7 -4 -9 1 -5 4 4 15 2 23 -5 13 -10 14 -8 7 11 -7 23 -6 23 17 9 12
-8 38 -18 56 -22 17 -4 32 -11 32 -16 0 -5 9 -9 21 -9 16 0 20 -4 14 -17 -3
-10 -9 -31 -12 -48 -4 -16 -11 -33 -17 -37 -6 -4 -69 -5 -141 -2 -96 4 -133 9
-141 19 -6 8 -15 11 -20 6 -18 -18 -293 49 -371 90 -29 14 -53 23 -53 19 0
-23 32 -80 45 -80 22 0 0 -41 -26 -47 -10 -3 -17 -9 -14 -13 3 -5 -28 -43 -70
-86 l-74 -77 -58 7 c-32 4 -87 20 -122 36 -35 17 -66 28 -68 26 -11 -11 36
-55 89 -85 32 -17 58 -34 58 -37 0 -3 -25 -16 -55 -30 -30 -14 -55 -28 -55
-30 0 -3 5 -15 11 -27 11 -20 10 -20 -15 3 -28 25 -34 10 -8 -18 20 -22 9 -23
-31 -3 l-36 18 24 23 c16 15 24 36 27 67 3 42 1 48 -35 79 -33 28 -97 61 -97
50 0 -2 22 -18 49 -36 59 -37 65 -48 37 -76 -12 -11 -31 -32 -44 -47 -19 -24
-27 -26 -61 -21 -31 5 -43 2 -60 -15 -20 -20 -22 -20 -40 -4 -11 9 -17 23 -13
31 3 10 1 13 -6 8 -7 -4 -12 -3 -12 3 0 17 -47 24 -63 10 -11 -10 -12 -19 -4
-36 8 -18 14 -20 33 -13 18 7 22 6 18 -5 -4 -9 3 -16 20 -21 22 -5 25 -10 20
-28 -4 -11 -13 -30 -20 -41 -8 -11 -14 -28 -14 -38 0 -11 -6 -33 -14 -50 -8
-18 -16 -41 -18 -52 -2 -11 -12 -21 -23 -23 -16 -3 -18 -1 -7 9 18 20 15 24
-28 44 -31 14 -54 17 -105 12 -59 -6 -66 -5 -61 11 11 39 19 111 21 179 1 89
12 102 100 128 44 12 61 21 53 27 -10 6 -7 13 11 28 30 26 51 25 51 0 0 -29
19 -24 65 15 46 39 41 56 -10 32 -21 -10 -59 -17 -93 -17 -60 1 -60 1 -5 37
17 12 17 12 -2 6 -33 -10 -126 -64 -180 -103 -63 -47 -113 -72 -128 -67 -17 6
-213 -95 -271 -140 -27 -21 -70 -66 -95 -100 -25 -34 -49 -62 -53 -62 -5 -1
-8 14 -9 32 l-1 32 -15 -35 c-8 -19 -20 -39 -27 -45 -45 -37 -156 -260 -156
-312 0 -23 40 -14 49 11 5 13 17 26 26 30 9 3 14 10 10 16 -3 5 3 15 15 22 11
7 20 20 20 30 0 9 5 20 11 24 13 8 2 -54 -13 -73 -5 -7 -10 -32 -10 -56 l-1
-44 -49 -12 c-47 -13 -48 -14 -48 -52 0 -23 5 -39 12 -39 6 0 22 -10 34 -21
52 -49 170 -27 238 45 52 53 52 196 1 196 -14 0 -38 57 -30 70 3 5 -4 11 -15
15 -11 4 -18 10 -15 15 3 5 -4 12 -16 15 -14 5 -25 1 -34 -12 -14 -17 -14 -17
-15 3 0 12 7 25 16 28 9 4 14 13 10 22 -3 8 -2 12 3 9 5 -3 12 -1 16 5 3 5 1
10 -4 10 -6 0 -11 5 -11 10 0 13 156 166 190 186 14 9 38 32 53 53 36 48 79
75 95 59 9 -9 12 -8 12 4 0 9 7 19 16 22 22 8 26 8 19 -5 -4 -5 9 -4 27 4 31
13 36 13 45 -2 8 -13 -3 -30 -61 -89 -39 -40 -87 -97 -107 -127 l-37 -53 -21
26 c-28 35 -27 13 1 -24 12 -16 15 -23 8 -16 -36 33 -46 0 -12 -40 9 -11 16
-46 18 -99 3 -46 7 -85 10 -88 3 -3 20 3 37 13 17 9 33 14 34 9 7 -19 44 -75
48 -71 3 2 -3 23 -12 46 -16 41 -16 43 7 67 31 33 53 34 40 0 -6 -16 -6 -26 1
-31 6 -3 8 -17 5 -30 -5 -17 -2 -26 9 -30 13 -5 11 -12 -12 -43 -19 -25 -21
-31 -8 -21 11 8 24 21 28 28 10 16 65 9 108 -13 16 -9 29 -17 29 -19 0 -1 -15
-3 -32 -4 -59 -1 -73 -5 -98 -22 -14 -9 -38 -20 -54 -24 -27 -7 -28 -6 -15 10
13 16 12 16 -8 5 -13 -6 -23 -18 -23 -25 0 -8 -14 -19 -32 -25 -18 -6 -42 -21
-54 -32 -12 -11 -41 -26 -65 -33 -40 -12 -66 -36 -39 -36 6 0 8 5 4 12 -4 7
-3 8 4 4 8 -5 8 -13 0 -31 -6 -13 -14 -22 -19 -20 -4 3 -11 0 -15 -6 -4 -8 -3
-9 4 -5 20 12 13 -10 -8 -29 -11 -10 -20 -23 -20 -28 0 -6 -6 -18 -14 -26 -8
-9 -30 -47 -48 -84 -30 -58 -36 -66 -47 -53 -11 13 -7 25 24 75 20 33 40 63
46 66 5 4 9 15 9 26 0 11 5 17 10 14 6 -3 10 -1 10 4 0 6 -4 11 -9 11 -5 0 -4
11 2 25 7 14 15 25 20 25 4 0 7 8 7 18 0 9 16 30 36 46 34 27 35 30 19 42 -16
12 -15 15 11 51 l28 38 -37 -35 c-21 -19 -42 -45 -47 -57 -10 -25 -112 -109
-149 -124 -38 -15 -143 24 -181 68 -17 19 -32 34 -33 32 -11 -18 -28 -61 -37
-94 -13 -51 -25 -71 -34 -56 -4 6 -3 11 2 11 6 0 7 14 1 37 -4 21 -6 39 -4 42
2 2 0 12 -6 23 -7 14 -7 23 1 33 7 8 9 19 5 25 -3 5 -3 15 0 21 13 20 15 114
3 136 -8 17 -8 29 0 48 6 14 8 25 3 25 -14 0 -32 52 -25 74 14 44 -34 -14 -66
-82 -31 -63 -164 -452 -157 -458 2 -2 21 5 42 16 46 24 59 18 51 -24 -9 -43
-100 -227 -131 -264 -28 -34 -136 -92 -170 -92 -12 0 -24 -3 -28 -6 -9 -10 25
-43 39 -37 8 3 14 -1 14 -10 0 -15 51 -19 66 -4 13 13 54 7 60 -8 4 -8 12 -15
20 -15 8 0 14 -4 14 -10 0 -5 -5 -10 -11 -10 -5 0 -7 -5 -3 -11 10 -16 -15
-29 -59 -29 -68 0 -172 65 -228 144 -41 55 -36 25 7 -48 60 -103 193 -178 287
-164 36 6 60 0 52 -12 -3 -4 5 -6 17 -2 21 5 22 4 9 -11 -12 -15 -11 -17 3
-17 9 0 16 8 16 20 0 11 -5 20 -11 20 -5 0 -7 5 -4 10 10 16 33 11 55 -12 22
-24 27 -18 8 12 -18 29 1 39 21 11 l18 -24 6 24 c4 13 7 36 7 50 0 14 9 34 20
44 22 20 26 14 9 -14 -9 -13 -9 -23 -1 -37 11 -18 11 -17 12 6 0 26 20 67 20
42 0 -7 4 -10 10 -7 5 3 10 -1 10 -9 0 -9 5 -16 10 -16 6 0 10 9 10 20 0 11 7
20 15 20 9 0 12 6 9 15 -5 11 1 15 22 15 l28 0 -36 -37 c-19 -21 -35 -46 -35
-55 0 -21 17 -24 17 -4 0 8 9 18 20 21 12 4 20 15 20 29 0 13 7 29 15 36 8 7
15 19 15 26 0 8 5 14 11 14 6 0 8 7 5 16 -3 9 -2 12 5 9 5 -4 17 -1 26 7 14
11 15 10 9 -9 -4 -12 -2 -24 4 -28 5 -3 10 -15 10 -27 0 -29 -107 -130 -167
-158 -26 -12 -58 -27 -71 -33 -25 -12 -99 -14 -185 -5 -62 6 -182 58 -243 104
-38 29 -103 118 -128 175 -9 22 -15 28 -15 15 -2 -33 62 -140 115 -191 28 -28
76 -64 107 -80 48 -25 56 -33 50 -50 -4 -11 -7 -30 -6 -43 1 -15 -7 -26 -21
-32 -11 -4 -32 -20 -45 -34 -13 -14 -39 -29 -58 -32 -18 -3 -33 -10 -33 -14 0
-12 73 -27 100 -20 19 5 29 2 42 -14 15 -18 18 -18 18 -4 0 9 -4 19 -8 22 -5
3 -9 19 -10 35 0 21 5 30 19 34 16 4 18 3 9 -8 -7 -8 -8 -20 -4 -27 4 -7 9
-23 10 -37 2 -13 8 -29 13 -34 15 -15 14 -30 -2 -24 -7 3 -24 -1 -38 -9 -34
-19 -115 -17 -172 3 -32 12 -65 35 -98 70 -54 57 -61 57 -26 1 28 -48 77 -83
149 -110 32 -11 58 -24 58 -27 0 -4 -19 -21 -42 -39 -86 -66 -155 -170 -176
-267 -31 -137 -26 -184 25 -257 37 -54 53 -50 46 10 -7 61 5 85 93 182 70 79
146 136 164 125 17 -11 11 -160 -11 -273 -21 -101 -74 -242 -98 -256 -6 -4
-11 -13 -11 -19 0 -7 4 -6 10 3 8 13 10 12 10 -4 0 -13 -5 -16 -17 -12 -9 4
-20 1 -25 -6 -10 -17 -10 -41 1 -34 5 3 45 14 91 25 l82 19 -7 -22 c-3 -11
-12 -45 -20 -73 -8 -29 -31 -84 -50 -123 -19 -38 -32 -70 -28 -70 5 0 1 -5 -7
-10 -12 -8 -12 -12 -2 -18 14 -9 6 -42 -10 -42 -6 0 -7 7 -4 16 10 26 -12 5
-44 -42 -17 -26 -29 -49 -26 -52 20 -19 225 79 275 132 19 20 38 36 42 36 25
0 -73 -251 -118 -302 -8 -9 -12 -22 -8 -27 3 -6 1 -11 -4 -11 -6 0 -11 -7 -11
-15 0 -8 -8 -15 -17 -15 -14 0 -15 -2 -4 -9 10 -6 5 -12 -17 -22 -45 -20 -31
-27 35 -18 67 9 75 6 72 -29 -2 -15 0 -33 4 -40 8 -12 7 -13 -12 -16 -18 -2
-25 -17 -13 -25 7 -4 14 -22 17 -39 3 -26 0 -32 -16 -32 -21 0 -26 26 -7 32 9
3 9 6 0 11 -15 10 -43 -44 -36 -70 4 -14 -3 -27 -20 -41 -14 -11 -26 -22 -26
-25 0 -21 138 49 237 119 22 16 23 16 23 -14 0 -93 -75 -435 -103 -470 -20
-25 4 -24 68 3 42 17 70 24 76 18 21 -21 32 -180 20 -300 -6 -65 -14 -130 -18
-145 -7 -37 6 -36 77 8 85 52 92 48 113 -71 13 -74 17 -139 15 -253 -2 -121 0
-152 10 -152 8 0 39 24 70 54 31 29 67 58 79 65 20 10 21 8 28 -42 9 -77 43
-214 70 -282 18 -46 45 -179 45 -221 0 -13 28 0 67 32 36 30 46 34 59 23 37
-31 161 -323 178 -420 4 -21 14 -43 22 -50 14 -11 20 -9 45 19 16 18 29 43 29
55 0 13 6 31 13 41 12 16 15 14 45 -23 18 -22 32 -42 32 -45 0 -3 34 -56 74
-119 41 -63 78 -127 82 -143 11 -46 43 -104 58 -104 17 0 42 28 50 58 4 12 13
22 19 22 17 0 180 -167 256 -262 73 -91 90 -97 120 -40 6 12 15 22 20 22 10 0
170 -128 263 -211 42 -38 81 -69 88 -69 6 0 16 14 21 30 8 22 17 30 35 30 19
0 247 -84 382 -140 l23 -10 -33 -30 c-18 -17 -38 -30 -45 -30 -7 0 -13 -4 -13
-10 0 -15 16 -12 30 5 7 8 17 15 22 15 9 0 13 2 71 51 l38 32 20 -22 c41 -44
67 -54 137 -52 157 3 170 5 165 18 -3 7 0 13 6 13 6 0 10 -11 9 -24 -2 -17 -7
-22 -20 -18 -10 2 -29 -3 -43 -12 -39 -25 -127 -21 -195 10 -53 24 -62 25 -97
14 -47 -15 -129 -64 -165 -98 -32 -30 -37 -19 -8 18 41 53 12 46 -55 -12 -80
-71 -116 -152 -131 -299 -7 -74 6 -98 30 -52 19 37 108 120 171 160 28 17 86
44 130 59 74 26 91 28 225 27 224 -2 371 -18 490 -51 145 -41 171 -53 213
-102 47 -56 71 -127 71 -217 0 -40 4 -73 9 -73 22 0 68 39 137 116 75 83 95
116 104 170 2 16 5 31 5 34 1 3 5 0 9 -7 4 -7 48 -17 97 -23 50 -6 144 -20
210 -32 66 -11 143 -24 170 -29 28 -4 62 -11 78 -14 35 -9 35 0 -5 75 -17 33
-28 63 -25 67 19 18 319 -63 364 -99 31 -25 28 4 -8 91 -21 51 -39 98 -39 104
0 18 109 0 255 -42 77 -22 147 -42 157 -46 14 -5 13 3 -8 60 -13 36 -33 83
-44 105 -11 21 -20 42 -20 46 0 7 316 -3 373 -12 46 -8 48 5 10 64 -21 33 -32
41 -48 36 -16 -4 -17 -3 -5 5 12 8 10 15 -14 40 l-28 29 33 19 c29 15 63 19
212 21 126 3 177 7 177 15 0 7 -43 53 -95 104 l-95 92 54 20 c68 25 144 45
276 70 58 11 119 25 135 31 17 6 53 11 80 13 55 2 66 16 35 47 -11 11 -18 25
-15 29 5 9 -57 61 -73 61 -5 0 -17 9 -27 20 -18 19 -16 21 101 75 117 56 259
99 363 112 47 5 52 8 37 19 -10 7 -52 15 -94 19 -43 3 -91 8 -108 10 -17 3
-77 4 -135 4 -57 0 -122 1 -144 1 -22 0 -91 -8 -152 -18 -62 -10 -113 -15
-113 -12 0 21 123 86 141 74 7 -4 9 -3 6 3 -7 12 78 10 107 -2 14 -6 17 -5 12
3 -5 9 22 10 106 7 109 -4 224 -12 244 -16 19 -3 35 1 30 9 -9 15 24 51 85 92
70 49 217 123 277 140 80 24 53 33 -113 35 -106 2 -305 -34 -460 -82 -220 -69
-247 -72 -205 -28 l21 23 -27 21 c-28 22 -44 27 -44 12 0 -5 9 -11 20 -14 11
-3 20 -13 20 -22 0 -10 -5 -14 -12 -11 -7 3 -21 9 -31 12 -14 5 -17 13 -12 31
5 23 4 24 -23 18 -21 -4 -35 0 -53 15 -13 12 -18 19 -11 15 7 -3 44 -8 83 -9
44 -1 74 -7 79 -15 5 -9 10 -10 14 -2 4 6 2 11 -3 11 -6 0 -11 4 -11 8 0 4 8
8 19 8 12 0 17 -5 13 -15 -3 -9 -1 -12 6 -7 7 4 12 1 12 -8 0 -9 -4 -16 -9
-16 -9 0 -24 -30 -18 -36 1 -2 42 16 90 40 48 24 87 39 87 35 0 -5 5 -9 11 -9
5 0 7 5 3 11 -4 6 1 10 12 8 31 -5 124 24 124 38 0 7 9 13 20 13 11 0 20 -5
20 -12 0 -9 3 -9 12 0 7 7 24 12 39 12 15 0 29 7 33 16 5 13 9 14 20 5 20 -17
186 6 179 25 -11 28 287 237 392 275 59 22 24 31 -105 30 -165 -2 -256 -28
-474 -136 -93 -47 -173 -82 -178 -79 -5 3 -12 -3 -15 -15 -3 -12 -11 -21 -17
-21 -7 0 -23 -11 -36 -25 -13 -14 -25 -23 -27 -21 -2 2 -18 -10 -34 -25 -17
-16 -36 -26 -42 -22 -6 4 -8 0 -4 -10 8 -22 1 -21 -23 3 -18 18 -18 20 -2 21
9 1 23 1 29 0 8 -1 10 5 7 14 -4 9 -12 14 -18 11 -6 -2 -28 -11 -48 -20 -21
-9 -38 -13 -39 -9 0 5 -4 -1 -9 -12 -8 -19 -9 -19 -9 -1 -1 15 -4 16 -16 6 -8
-7 -22 -9 -31 -6 -12 5 -15 2 -10 -10 5 -14 4 -15 -8 -5 -7 6 -21 8 -31 5 -10
-4 -21 -1 -26 7 -7 11 -9 10 -9 -5 0 -14 -5 -17 -25 -12 -14 4 -25 2 -25 -3 0
-6 -7 -8 -15 -5 -8 4 -15 1 -15 -5 0 -6 -3 -10 -7 -10 -20 3 -27 -2 -14 -10 7
-5 10 -14 6 -20 -5 -9 -11 -7 -20 6 -11 14 -16 15 -26 6 -20 -19 14 -47 39
-32 15 10 26 9 52 -5 18 -9 41 -16 52 -16 11 0 18 -7 18 -20 0 -14 6 -20 18
-18 12 2 18 -5 20 -22 2 -14 9 -31 15 -39 10 -12 9 -13 -2 -6 -24 14 -62 13
-57 -2 3 -7 1 -13 -4 -13 -6 0 -10 4 -10 10 0 5 -13 7 -30 4 -16 -4 -36 -2
-43 4 -8 7 -26 8 -52 2 -22 -5 -40 -8 -40 -7 -1 1 -9 20 -19 42 -9 22 -21 48
-27 58 -8 15 -5 20 20 30 22 8 34 22 43 47 18 57 47 87 108 114 32 14 60 26
64 26 3 0 25 13 48 30 26 19 53 30 74 30 18 0 36 5 39 10 3 6 13 10 21 10 7 0
42 13 76 29 35 16 80 33 102 37 29 5 41 13 50 35 7 16 15 26 19 22 4 -3 7 -1
7 6 0 10 14 11 60 2 3 -1 0 -5 -5 -9 -6 -4 -24 -27 -40 -52 -17 -25 -33 -47
-37 -48 -5 -2 -8 -8 -8 -14 0 -5 17 3 38 19 49 38 129 88 167 105 17 7 51 26
76 41 47 28 104 41 232 52 51 5 67 10 67 22 0 22 261 283 343 343 37 28 67 53
67 56 0 19 -319 -84 -421 -135 -75 -39 -173 -100 -177 -112 -2 -5 -8 -9 -14
-9 -5 0 -43 -23 -84 -50 -81 -54 -86 -57 -78 -37 15 41 -75 42 -117 3 -14 -13
-31 -20 -38 -18 -9 3 -12 0 -9 -10 4 -9 -2 -14 -17 -16 -28 -2 -154 -62 -190
-90 -30 -23 -64 -37 -72 -28 -3 3 12 13 33 23 22 10 63 35 92 56 30 22 61 40
70 41 9 2 18 8 20 14 2 7 11 12 21 12 9 0 25 6 36 14 11 7 22 13 25 13 9 -1
39 18 39 25 3 22 50 115 64 127 10 7 17 20 17 28 0 7 6 16 13 18 6 3 13 16 13
30 3 44 12 57 36 51 13 -3 17 -3 11 0 -17 8 -16 24 1 24 7 0 24 8 37 18 25 19
59 35 59 27 0 -2 -13 -11 -29 -19 -28 -15 -47 -61 -30 -71 9 -6 -21 -57 -73
-123 -41 -51 -46 -62 -23 -62 8 0 19 -9 25 -20 10 -18 13 -19 25 -6 8 8 15 17
15 20 0 11 87 87 166 143 54 40 236 124 279 129 6 0 26 8 47 17 20 9 54 19 77
23 23 4 41 12 41 18 0 6 15 34 33 61 100 150 142 205 207 271 40 40 69 77 66
83 -9 14 -46 14 -46 1 0 -5 -8 -10 -18 -10 -10 0 -22 -4 -27 -9 -6 -4 -48 -28
-95 -52 -111 -56 -250 -142 -274 -168 -11 -12 -24 -21 -29 -21 -18 0 -120 -94
-165 -152 -25 -32 -60 -67 -79 -78 -18 -10 -33 -24 -33 -30 0 -6 4 -8 10 -5 6
3 7 -1 4 -10 -4 -9 -11 -14 -17 -12 -6 2 -28 -18 -49 -45 -21 -26 -40 -48 -42
-48 -9 0 22 84 32 88 7 2 12 11 12 20 1 42 73 158 147 237 69 73 167 145 197
145 8 0 19 6 25 13 6 8 29 20 51 27 32 11 40 18 38 34 -2 16 3 21 19 21 12 0
30 8 40 17 27 24 99 58 123 58 11 0 20 6 20 13 0 11 72 153 138 276 13 24 44
68 68 98 46 56 49 69 22 86 -22 15 -54 1 -39 -17 9 -10 -6 -23 -69 -62 -44
-27 -92 -59 -107 -71 -50 -41 -70 -48 -88 -29 -9 9 -14 23 -11 32 3 8 2 12 -4
9 -26 -16 -6 17 25 42 l35 28 -27 6 c-25 6 -24 7 11 8 21 0 71 16 111 34 l73
32 12 55 c22 99 41 163 81 269 46 121 48 135 18 126 -59 -19 -170 -129 -341
-338 -39 -48 -78 -87 -85 -87 -17 0 -16 -5 5 -37 9 -15 12 -24 5 -20 -6 4 -14
3 -18 -3 -4 -6 4 -10 19 -10 14 0 27 -4 31 -9 3 -6 -9 -7 -30 -4 -31 5 -35 3
-35 -16 0 -27 -15 -27 -34 1 -14 19 -14 23 4 38 11 9 17 20 13 24 -3 3 1 6 10
6 10 0 14 5 11 15 -4 9 6 26 23 42 35 35 53 74 53 118 0 26 9 45 37 75 20 23
42 39 49 36 7 -3 33 19 58 47 75 86 90 101 123 129 30 24 34 34 49 130 9 57
27 149 40 205 32 138 32 143 -9 143 -28 0 -36 5 -50 35 -24 50 -22 75 6 75 48
0 112 27 115 47 2 15 9 19 27 15 38 -7 112 7 136 26 17 15 22 33 28 106 5 61
3 96 -6 117 -17 40 5 193 36 244 l21 36 -22 -6 c-22 -7 -23 -7 -3 8 11 8 23
13 27 11 5 -3 8 0 8 5 0 28 -61 -10 -106 -65 -33 -40 -39 -44 -50 -30 -11 16
-7 55 10 97 4 8 3 25 -2 38 l-8 22 -24 -26 c-28 -30 -41 -134 -20 -160 19 -23
3 -18 -20 7 -11 12 -20 31 -20 43 0 11 -5 26 -11 32 -7 7 -9 22 -4 40 10 35
13 425 3 415 -3 -4 -15 -33 -25 -64 -24 -71 -47 -66 -40 8 2 32 -1 52 -9 59
-15 12 -24 461 -10 508 6 21 5 27 -7 27 -17 0 -28 -37 -29 -101 0 -24 -7 -49
-15 -58 -21 -20 -53 -22 -53 -2 -1 22 -22 47 -40 46 -9 0 -26 -10 -40 -22 -29
-28 -40 -29 -40 -3 0 12 7 20 16 20 10 0 14 5 10 16 -4 9 -2 13 5 8 6 -4 15 0
20 7 15 25 10 30 -15 14 -31 -21 -51 -12 -113 48 -28 27 -56 47 -61 43 -6 -3
-19 9 -31 27 -11 17 -27 41 -36 53 -14 19 -14 23 3 45 10 13 23 43 29 66 9 37
8 48 -13 90 -23 46 -60 100 -90 134 -20 22 -18 46 6 71 11 12 20 32 20 44 0
12 7 29 15 38 8 8 15 21 15 29 0 8 9 26 20 40 11 14 20 30 20 36 0 6 12 28 28
49 79 113 78 111 35 67 -21 -22 -46 -51 -56 -64 -15 -23 -17 -24 -35 -8 -21
19 -40 21 -62 7 -13 -9 -13 -11 0 -20 12 -8 12 -10 1 -10 -13 0 -40 -28 -41
-42 0 -4 7 -14 16 -23 13 -13 19 -14 25 -4 4 8 10 11 13 9 2 -3 -2 -14 -10
-25 -14 -19 -16 -19 -25 -2 -6 9 -15 17 -20 17 -6 0 -8 -4 -4 -9 10 -17 -32
-33 -47 -18 -7 8 -19 12 -27 9 -10 -3 -12 0 -8 12 5 12 3 16 -5 13 -7 -2 -12
-14 -10 -27 l2 -22 -20 23 c-20 24 -20 24 -35 5 -8 -11 -15 -30 -15 -42 0 -12
-7 -25 -16 -28 -22 -8 -24 -8 -24 7 0 8 -19 33 -41 56 -23 23 -38 45 -35 48 8
8 68 7 117 -2 52 -10 61 8 64 118 3 99 12 161 27 191 9 16 7 18 -8 12 -16 -6
-17 -5 -2 11 16 18 29 123 15 123 -32 0 -83 -303 -56 -336 6 -7 7 -30 1 -61
-8 -46 -9 -48 -37 -45 -45 5 -71 26 -120 100 -25 37 -45 63 -45 58 0 -5 -10
-1 -22 10 -13 10 -10 4 6 -14 31 -34 29 -40 -7 -21 -21 11 -21 10 2 -14 13
-15 32 -29 43 -33 10 -3 18 -11 18 -19 0 -7 7 -21 17 -30 14 -14 14 -18 2 -26
-16 -10 -31 -7 -29 5 2 9 -19 26 -32 26 -4 0 -5 -7 -2 -15 4 -8 2 -15 -3 -15
-6 0 -14 14 -19 32 -7 22 -16 32 -32 33 -12 1 -22 -2 -22 -7 0 -5 -5 -6 -10
-3 -6 4 -8 10 -6 14 3 4 -1 8 -9 8 -16 0 -20 -13 -7 -19 4 -1 5 -16 1 -33 -6
-29 -6 -29 -19 17 -9 29 -17 43 -21 36 -12 -19 -19 -6 -39 72 -18 71 -40 113
-40 77 0 -23 -9 -21 -31 4 -10 12 -23 18 -30 14 -8 -6 -8 -10 2 -16 12 -8 11
-11 -1 -19 -11 -7 -16 -5 -18 10 -4 24 -15 25 -46 5 -13 -9 -30 -14 -37 -13
-8 2 -13 -2 -12 -9 1 -6 -5 -10 -15 -8 -9 1 -25 -2 -34 -7 -12 -5 -18 -5 -18
2 0 15 57 47 96 54 33 7 52 22 40 33 -3 3 -13 0 -21 -7 -9 -8 -37 -21 -63 -30
-26 -9 -56 -20 -67 -25 -20 -8 -20 -8 0 8 19 15 18 15 -14 13 -25 -2 -35 2
-38 14 -3 10 -22 23 -44 30 -22 7 -44 19 -49 25 -6 8 -29 11 -58 9 l-47 -4 38
11 c41 12 44 17 21 45 -15 18 -15 18 -9 -3 4 -14 2 -23 -5 -23 -6 0 -9 3 -6 8
2 4 -2 16 -10 27 -11 15 -17 16 -26 7 -7 -7 -19 -12 -27 -11 -11 0 -10 3 4 9
18 7 16 9 -12 15 -18 4 -30 11 -27 16 3 5 0 9 -6 9 -6 0 -15 12 -21 28 -22 57
-29 142 -39 472 -1 23 -2 23 -11 7 -15 -26 -36 -173 -38 -270 -2 -85 -6 -101
-22 -92 -5 4 -9 -3 -9 -14 0 -12 -9 -26 -20 -33 -21 -13 -27 -38 -10 -38 6 0
10 -4 10 -10 0 -5 -7 -7 -15 -4 -8 4 -15 1 -15 -6 0 -6 -4 -9 -9 -6 -5 3 -25
8 -45 10 -32 5 -36 3 -36 -17 0 -12 4 -17 8 -12 6 9 27 11 76 7 11 -1 17 -5
14 -8 -3 -3 5 -17 18 -31 27 -30 24 -45 -4 -20 -21 19 -48 22 -58 6 -4 -7 0
-9 14 -5 11 4 23 2 27 -4 3 -5 0 -10 -7 -10 -10 0 -10 -2 1 -9 8 -5 21 -6 30
-3 13 5 14 3 3 -10 -10 -13 -10 -17 4 -22 8 -3 24 -6 34 -6 10 0 21 -4 25 -9
3 -6 -8 -8 -28 -4 -26 4 -36 1 -40 -11 -4 -10 -1 -16 8 -17 29 -3 33 -4 42
-13 5 -5 3 -6 -4 -2 -9 5 -13 1 -13 -11 -1 -17 -1 -17 -14 0 -7 9 -18 17 -25
17 -6 0 -11 9 -11 19 0 11 -9 23 -20 26 -25 8 -26 22 -2 27 9 2 -6 9 -35 14
-29 6 -50 7 -47 2 3 -4 -1 -8 -10 -8 -8 0 -17 6 -20 13 -3 8 -8 7 -16 -5 -6
-10 -17 -18 -25 -18 -9 0 -12 -6 -9 -15 4 -8 1 -15 -5 -15 -6 0 -10 -3 -10 -7
8 -51 -54 36 -85 119 -13 34 -37 99 -54 143 -33 89 -68 307 -57 362 4 20 2 33
-5 33 -10 0 -15 -20 -12 -53 1 -12 -2 -16 -10 -11 -8 5 -9 2 -5 -9 3 -9 2 -19
-3 -22 -15 -9 -30 -76 -21 -94 5 -9 12 -51 16 -95 4 -50 15 -97 31 -132 36
-79 41 -112 18 -128 -16 -12 -20 -11 -29 6 -14 28 -29 24 -33 -7 -5 -36 -23
-31 -81 23 -40 38 -50 53 -44 68 6 16 4 17 -8 7 -20 -16 -57 24 -144 158 -59
90 -159 281 -160 304 0 6 -3 12 -7 15 -4 3 -18 48 -31 100 l-25 95 -1 -90 c0
-61 4 -98 14 -115 20 -36 20 -37 -27 -62 -32 -16 -38 -23 -25 -26 10 -2 26 3
36 12 39 35 47 25 76 -96 2 -9 15 -34 30 -56 17 -26 26 -54 27 -81 0 -23 5
-41 10 -41 6 0 8 -7 4 -15 -5 -14 33 -65 48 -65 4 0 4 10 1 23 -7 22 -7 22 9
2 8 -11 16 -24 16 -30 0 -5 22 -25 48 -43 42 -30 44 -32 17 -26 -16 3 -50 15
-74 25 -24 11 -65 19 -92 19 -52 0 -77 17 -33 22 25 3 22 8 -52 68 -43 36 -82
64 -86 63 -5 -2 -8 1 -8 6 0 5 -31 42 -70 82 -38 41 -70 77 -70 81 0 4 25 12
55 19 31 7 58 16 61 20 7 12 -67 -1 -100 -17 -16 -8 -33 -11 -37 -7 -53 59
-125 171 -164 256 -28 59 -54 107 -59 107 -4 0 -5 -10 -2 -22 4 -13 10 -52 13
-88 3 -35 12 -71 20 -78 16 -17 17 -59 1 -66 -7 -3 -4 -4 6 -3 16 2 20 -5 21
-32 0 -19 8 -39 18 -45 11 -9 13 -16 6 -23 -8 -8 -7 -11 2 -10 36 1 59 -4 59
-14 0 -6 10 -19 22 -29 l23 -18 -55 -25 c-30 -14 -48 -26 -40 -26 8 0 26 6 40
14 14 8 33 14 44 15 23 0 64 -42 58 -60 -3 -7 0 -10 7 -6 6 4 22 -4 35 -18 13
-14 29 -26 35 -26 15 0 132 -82 126 -88 -2 -2 -29 8 -59 22 -90 43 -106 43
-176 2 -33 -20 -63 -36 -66 -36 -13 0 56 50 82 61 27 10 27 12 9 19 -11 5 -51
11 -88 15 -38 4 -63 11 -57 15 8 5 3 14 -14 28 -18 13 -23 23 -15 27 8 6 7 10
-2 16 -8 4 -16 3 -20 -3 -14 -22 -216 116 -322 219 -79 77 -116 128 -158 216
l-30 62 7 -70z m-996 -85 c0 -5 -2 -10 -4 -10 -3 0 -8 5 -11 10 -3 6 -1 10 4
10 6 0 11 -4 11 -10z m1024 -114 c-10 -8 -21 -12 -23 -10 -3 2 4 11 15 18 10
8 21 12 23 10 3 -2 -4 -11 -15 -18z m-1141 -298 c13 3 17 -4 17 -31 0 -33 -2
-35 -37 -39 -21 -3 -40 -4 -42 -2 -2 2 1 22 8 44 8 27 16 38 24 33 7 -4 20 -6
30 -5z m151 -28 c5 -5 -1 -11 -15 -14 -89 -18 -106 -15 -93 17 4 12 17 14 52
10 26 -2 51 -8 56 -13z m-872 -48 c-4 -25 6 -29 22 -7 10 13 15 13 48 -5 21
-11 50 -20 65 -20 16 0 38 -3 51 -6 19 -6 21 -9 10 -23 -12 -14 -11 -15 6 -1
19 15 69 15 95 0 10 -5 2 -14 -30 -33 -105 -62 -205 -84 -372 -86 l-108 0 21
29 c28 40 40 45 40 20 0 -12 -4 -19 -9 -15 -5 3 -12 1 -15 -3 -3 -5 11 -8 31
-6 19 1 39 8 44 15 7 11 9 11 9 1 0 -7 5 -10 11 -7 6 5 4 11 -7 19 -10 8 -14
19 -10 27 4 8 1 5 -8 -5 -8 -10 -13 -22 -11 -27 3 -4 1 -10 -4 -13 -5 -3 -11
7 -13 23 -4 25 5 40 51 90 57 62 89 75 83 33z m2116 -12 c-14 -22 -24 -19 -15
5 4 8 11 15 17 15 6 0 6 -7 -2 -20z m27 -29 c-3 -6 -11 -8 -17 -5 -6 4 -5 9 3
15 16 10 23 4 14 -10z m54 -26 c6 3 11 -1 11 -10 0 -9 6 -15 13 -12 6 2 17 -3
23 -11 10 -13 14 -13 30 6 10 12 24 22 30 22 7 0 -1 -13 -18 -30 -29 -29 -48
-38 -48 -22 0 4 -18 18 -40 32 -22 14 -40 32 -40 40 1 12 4 11 15 -4 7 -10 18
-15 24 -11z m-1764 -15 c-10 -12 -24 -19 -31 -16 -7 3 -15 0 -17 -7 -2 -7 -8
-8 -13 -4 -12 12 33 47 59 47 20 0 20 -1 2 -20z m75 16 c0 -2 -7 -6 -15 -10
-8 -3 -15 -1 -15 4 0 6 7 10 15 10 8 0 15 -2 15 -4z m-1420 -67 c0 -6 -4 -7
-10 -4 -5 3 -10 11 -10 16 0 6 5 7 10 4 6 -3 10 -11 10 -16z m1258 14 c-10 -2
-26 -2 -35 0 -10 3 -2 5 17 5 19 0 27 -2 18 -5z m2202 -3 c0 -5 -2 -10 -4 -10
-3 0 -8 5 -11 10 -3 6 -1 10 4 10 6 0 11 -4 11 -10z m-1175 -11 c63 -11 301
-12 370 -2 107 16 271 1 299 -28 6 -5 18 -9 29 -9 11 0 15 -5 11 -11 -4 -8 -1
-8 12 -2 24 12 28 11 94 -14 30 -11 72 -23 93 -27 53 -10 48 -30 -5 -22 -145
22 -311 64 -255 66 9 0 17 5 17 10 0 14 -16 13 -40 -2 -17 -11 -22 -10 -29 1
-10 16 -62 12 -209 -18 -123 -24 -304 -23 -399 4 -58 16 -60 16 -104 -7 -24
-13 -55 -31 -69 -40 -38 -25 -160 -48 -249 -48 -75 0 -85 -2 -135 -35 -48 -30
-148 -75 -168 -75 -5 0 -8 9 -8 21 0 11 -4 18 -9 14 -5 -3 -12 -1 -16 5 -3 5
-3 11 2 11 4 1 17 3 28 4 11 2 66 28 122 59 95 52 107 56 167 56 86 0 224 33
294 70 63 33 72 34 157 19z m-1127 -37 c-14 -9 -50 -36 -80 -59 -30 -23 -63
-41 -74 -40 -11 1 -18 -4 -16 -11 1 -8 -2 -11 -8 -7 -5 3 -13 -1 -16 -9 -3 -9
-10 -13 -15 -10 -5 3 -9 1 -9 -3 0 -5 -12 -14 -27 -21 -16 -6 -44 -24 -63 -38
-31 -23 -41 -25 -91 -20 -30 3 -66 10 -80 15 -20 8 -17 9 23 9 34 0 52 5 69
21 13 12 34 24 46 27 13 4 23 9 23 14 0 8 92 39 119 41 12 0 12 2 2 6 -7 3 21
20 62 38 42 18 85 39 95 47 11 7 30 14 43 15 22 2 22 2 -3 -15z m2306 -32 c5
-5 8 -12 5 -14 -9 -9 -175 -24 -203 -19 l-28 6 38 14 c89 32 164 37 188 13z
m736 -1 c0 -5 5 -7 10 -4 11 7 40 -18 40 -35 0 -7 -14 -9 -42 -4 -24 3 -60 7
-82 9 -21 2 -43 9 -50 15 -9 10 0 11 42 6 43 -6 52 -4 52 9 0 8 7 15 15 15 8
0 15 -5 15 -11z m-1515 -38 c49 -5 88 -4 102 2 15 7 30 5 50 -5 18 -9 67 -15
133 -17 99 -2 150 -8 150 -17 0 -2 -5 -13 -12 -24 -7 -10 -10 -21 -8 -24 3 -2
59 -9 125 -15 110 -10 219 -33 238 -51 14 -12 -3 -36 -41 -55 l-37 -19 75 -7
c64 -6 167 -24 335 -60 22 -4 45 -8 50 -9 6 0 1 -8 -10 -16 -19 -15 -19 -15
10 -8 17 3 55 16 85 27 71 27 144 25 196 -5 64 -37 89 -61 90 -89 l2 -26 -72
18 c-150 38 -353 26 -457 -26 -75 -38 -70 -45 30 -45 117 0 233 -35 309 -92
28 -22 52 -44 52 -48 0 -4 -20 -15 -45 -24 -25 -10 -48 -22 -51 -28 -3 -5 7
-3 22 5 59 30 263 69 313 60 12 -2 30 2 38 9 12 10 17 9 27 -3 6 -9 29 -19 51
-22 24 -4 46 -15 57 -29 11 -14 18 -18 18 -9 0 8 18 -7 41 -33 22 -25 44 -44
49 -41 4 3 14 -10 21 -28 15 -38 26 -47 48 -40 12 5 11 1 -4 -14 -18 -18 -22
-18 -42 -5 -13 8 -21 18 -18 22 5 8 -26 38 -66 62 -41 26 -121 50 -162 50 -22
-1 -50 3 -64 9 -16 6 -31 5 -45 -2 -16 -9 -19 -8 -13 2 12 19 -205 3 -286 -22
-64 -19 -141 -70 -127 -84 4 -4 30 -2 59 5 70 17 342 8 391 -13 20 -8 39 -20
42 -26 4 -6 13 -8 19 -5 7 4 9 3 4 -1 -4 -5 0 -16 9 -26 9 -10 19 -39 21 -64
6 -50 6 -50 69 -34 63 16 87 3 108 -57 20 -59 20 -78 1 -94 -23 -19 -10 -23
22 -7 34 18 99 96 96 117 -2 10 0 10 3 2 3 -6 10 -10 15 -6 15 9 10 -3 -7 -21
-15 -15 -15 -17 2 -30 11 -7 16 -17 11 -21 -4 -4 -7 -2 -7 4 0 21 -36 13 -47
-11 -19 -42 -97 -70 -208 -76 -98 -6 -100 -6 -75 -23 38 -26 160 -48 266 -48
52 0 94 -2 94 -5 0 -3 -18 -35 -40 -72 -38 -62 -45 -93 -20 -93 6 0 43 17 82
38 67 34 78 37 158 37 77 0 91 -3 127 -27 58 -38 93 -112 93 -195 l0 -63 25
16 c14 9 22 20 19 25 -3 5 -3 18 1 29 5 16 10 17 31 8 13 -6 24 -14 24 -17 -2
-24 -83 -87 -99 -77 -5 4 -19 -7 -30 -23 -18 -25 -19 -30 -6 -41 12 -10 28
-10 80 0 60 11 68 11 105 -9 22 -12 49 -21 59 -21 34 0 51 -12 51 -34 1 -21 1
-21 20 3 11 13 20 18 20 12 0 -6 9 -11 21 -11 11 0 17 5 14 10 -10 16 1 12 42
-16 48 -32 53 -38 28 -31 -60 18 -73 18 -88 3 -20 -20 -15 -76 9 -93 9 -6 13
-17 9 -23 -4 -6 -2 -16 3 -23 12 -15 13 -66 1 -68 -23 -4 -29 -3 -28 5 0 5 -3
12 -8 15 -5 3 -22 29 -37 56 -31 55 -64 95 -78 95 -5 0 -26 11 -46 25 -74 51
-67 25 36 -134 91 -140 109 -179 127 -277 18 -91 19 -146 4 -214 -14 -67 -47
-105 -104 -119 -46 -12 -53 -31 -12 -31 18 0 19 -2 7 -10 -38 -24 -68 -12
-109 47 -32 43 -41 51 -41 34 0 -23 40 -108 72 -154 31 -44 70 -57 196 -68
129 -10 145 -19 140 -73 -3 -28 -1 -30 32 -30 l35 -1 2 -125 c1 -69 5 -164 9
-211 4 -57 2 -104 -6 -140 -7 -30 -14 -97 -16 -149 -4 -137 -11 -181 -44 -268
-17 -42 -28 -84 -25 -93 3 -10 1 -20 -5 -24 -5 -3 -10 -26 -10 -51 0 -42 1
-44 20 -34 11 6 20 17 20 26 0 8 6 17 14 20 8 3 12 12 10 19 -5 13 33 42 42
33 2 -3 -9 -22 -26 -44 -16 -21 -30 -43 -30 -49 0 -5 -6 -21 -13 -35 -7 -14
-22 -49 -32 -77 -27 -76 -47 -70 -25 6 17 60 3 45 -16 -16 -9 -32 -31 -84 -47
-116 -28 -56 -29 -58 -12 -77 10 -11 26 -20 36 -20 33 0 30 -19 -11 -61 -45
-46 -140 -194 -178 -277 -19 -43 -26 -51 -38 -41 -8 6 -11 16 -7 23 11 19 -3
3 -41 -47 -20 -26 -36 -56 -36 -67 0 -11 -15 -33 -34 -50 -18 -17 -56 -68 -84
-113 -27 -45 -64 -92 -80 -104 -29 -21 -32 -22 -42 -5 -9 14 -10 10 -8 -20 2
-21 -1 -37 -7 -37 -5 0 -9 18 -7 40 4 60 -14 40 -39 -43 -21 -70 -75 -164
-118 -202 -11 -11 -21 -29 -21 -40 -1 -20 -1 -20 -20 3 -15 18 -20 38 -20 88
0 53 -3 64 -16 61 -9 -2 -24 -26 -34 -55 -29 -82 -70 -150 -116 -192 -24 -22
-44 -47 -44 -55 0 -9 -7 -16 -15 -16 -9 0 -25 -9 -37 -20 -12 -11 -25 -20 -28
-20 -4 0 -5 47 -2 104 7 150 1 156 -56 55 -31 -54 -71 -106 -112 -146 -47 -44
-58 -61 -42 -56 13 3 37 23 54 44 17 21 40 41 50 45 17 5 66 93 83 148 3 10 8
17 11 14 2 -3 -7 -45 -21 -94 -32 -110 -125 -259 -155 -249 -13 4 -22 -1 -30
-14 -9 -18 -8 -20 7 -14 17 6 17 5 0 -15 -11 -11 -25 -18 -33 -15 -7 2 -27 -2
-43 -10 -23 -12 -32 -12 -40 -3 -17 21 12 94 49 123 23 18 8 24 -34 12 -21 -6
-40 -9 -42 -7 -2 3 1 31 6 64 15 88 11 120 -7 59 -74 -257 -156 -383 -294
-448 -31 -14 -62 -33 -69 -42 -7 -8 -19 -15 -27 -15 -18 0 -97 -46 -113 -65
-7 -8 -18 -15 -25 -15 -26 0 -2 38 71 116 42 43 87 95 101 114 15 19 52 61 82
93 63 65 63 72 0 22 -47 -37 -75 -46 -65 -20 21 55 51 195 42 195 -2 0 -17
-33 -32 -72 -15 -40 -39 -95 -54 -123 -15 -27 -33 -70 -39 -95 -14 -53 -38
-84 -68 -92 -20 -5 -21 -3 -12 19 15 41 4 37 -25 -8 -15 -22 -30 -38 -33 -35
-8 7 -59 -30 -105 -76 -26 -26 -43 -35 -54 -31 -12 4 -15 3 -10 -5 4 -7 2 -12
-4 -12 -6 0 -9 -4 -6 -9 7 -10 -68 -80 -138 -129 -44 -31 -53 -34 -78 -24 -16
6 -28 6 -28 1 0 -14 -36 -11 -49 4 -8 11 -6 18 8 31 17 16 19 16 23 -1 3 -10
15 -19 27 -20 12 -1 19 2 16 8 -4 5 -1 9 4 9 6 0 11 5 11 10 0 7 -7 7 -22 0
-22 -11 -22 -10 -4 4 14 11 23 13 32 5 15 -12 29 5 18 22 -4 7 4 20 17 30 20
15 22 20 11 31 -10 10 -14 10 -21 -1 -5 -7 -15 -11 -22 -8 -14 4 -78 -28 -90
-46 -3 -4 -14 -10 -25 -11 -10 -2 -26 -17 -36 -34 -19 -35 -17 -38 14 -21 11
6 18 7 15 2 -9 -15 22 -53 43 -53 10 0 22 -5 26 -12 5 -8 2 -9 -12 -4 -40 16
-77 20 -70 7 4 -6 11 -9 14 -7 4 2 18 -2 32 -10 24 -14 23 -15 -25 -10 -76 7
-151 26 -171 41 -17 13 -17 16 -4 25 8 5 36 10 61 10 42 0 47 3 65 36 11 20
35 44 56 55 20 10 57 35 82 56 77 64 100 79 135 91 50 17 122 62 116 71 -2 5
2 14 10 21 8 7 15 17 15 23 0 6 -3 7 -7 4 -3 -4 -11 0 -17 8 -9 12 -22 13 -63
6 -29 -4 -53 -5 -53 -2 0 4 23 42 50 86 28 44 50 84 50 89 0 5 -26 -19 -57
-55 -139 -155 -222 -216 -377 -276 -97 -36 -135 -42 -180 -24 -43 17 -46 3 -6
-32 19 -17 28 -28 19 -25 -8 3 -23 0 -34 -8 -10 -8 -29 -14 -43 -14 -13 0 -21
-4 -18 -9 3 -5 -15 -14 -41 -20 -36 -10 -44 -15 -33 -22 11 -8 4 -9 -23 -5
-24 3 -48 15 -62 31 -15 15 -35 25 -53 25 -54 0 -122 28 -216 89 -123 79 -168
91 -273 67 -43 -10 -89 -16 -101 -15 l-24 4 20 25 c10 14 17 31 14 39 -3 11 3
12 29 7 39 -8 51 -8 97 -5 30 2 31 3 16 20 -8 9 -29 24 -46 32 -30 14 -30 15
-10 26 18 9 23 8 31 -8 6 -11 25 -22 43 -26 18 -4 40 -13 48 -20 65 -55 227
-98 345 -90 118 8 346 55 369 76 6 5 16 9 24 9 25 0 119 48 125 64 4 9 16 16
27 16 11 0 20 4 20 9 0 5 -18 7 -40 4 -47 -7 -49 1 -20 66 29 62 25 63 -15 3
-20 -28 -39 -52 -44 -52 -4 0 -18 -9 -31 -20 -15 -13 -31 -18 -44 -14 -17 4
-18 3 -6 -5 23 -16 -91 -62 -164 -67 -51 -3 -63 0 -79 17 -21 23 -37 18 -17
-6 11 -13 4 -15 -56 -15 -101 0 -187 28 -293 94 l-91 58 28 22 c15 12 38 30
52 39 13 9 19 17 12 17 -18 0 -51 -18 -85 -46 l-28 -24 -40 20 c-21 11 -39 24
-39 29 0 15 -171 6 -180 -9 -5 -8 -11 -12 -14 -9 -11 10 61 78 90 85 16 4 34
13 39 21 15 20 149 17 164 -4 3 -4 17 -9 31 -10 75 -7 92 -14 87 -34 -7 -27
12 -24 23 4 5 12 9 17 9 10 1 -7 7 -10 15 -7 7 3 30 -6 51 -20 40 -27 61 -34
50 -15 -4 6 18 33 49 61 31 27 56 54 56 58 0 5 -16 2 -36 -6 -20 -8 -43 -13
-50 -10 -8 3 -14 1 -14 -3 0 -17 -31 -21 -75 -9 -25 7 -45 16 -45 20 0 5 -11
6 -25 4 -16 -3 -28 1 -34 12 -8 14 -27 17 -115 17 -58 0 -106 1 -106 3 0 1 11
7 25 12 14 5 25 17 25 26 0 9 -6 14 -13 11 -7 -2 -39 -10 -72 -17 -73 -15 -87
-22 -56 -30 23 -5 20 -8 -30 -40 -30 -18 -71 -53 -92 -77 -42 -47 -57 -48 -57
-4 0 15 -7 36 -15 47 -14 19 -14 19 -15 -3 0 -12 5 -25 10 -28 6 -3 10 -20 10
-36 0 -26 -3 -29 -24 -23 -31 7 -80 -20 -95 -54 l-12 -24 -18 21 c-22 25 -201
115 -210 105 -9 -9 97 -101 149 -129 62 -34 116 -85 124 -118 4 -15 11 -25 16
-22 5 3 14 -4 20 -15 11 -21 40 -28 40 -9 0 6 18 -3 39 -20 21 -17 44 -31 50
-31 6 0 11 -7 11 -15 0 -8 -7 -15 -15 -15 -24 0 -115 49 -122 65 -3 8 -11 15
-18 15 -6 0 -20 9 -30 20 -18 20 -62 29 -50 10 3 -5 -1 -10 -9 -10 -8 0 -18
-5 -22 -12 -5 -7 -3 -8 6 -3 9 6 10 2 5 -16 -10 -33 -15 -36 -26 -16 -13 22
-30 22 -22 0 8 -23 -1 -14 -17 16 -8 15 -8 21 -1 17 6 -4 11 -2 11 3 0 6 -6
11 -12 11 -7 0 -22 20 -33 43 -24 53 -87 118 -143 146 -37 19 -49 21 -95 12
-29 -5 -59 -12 -68 -16 -41 -16 -103 102 -80 152 16 35 13 41 -6 14 -9 -13
-19 -37 -22 -54 -4 -17 -11 -32 -17 -34 -5 -2 -39 22 -75 53 -70 61 -146 106
-136 82 3 -8 2 -20 -3 -27 -10 -17 -52 8 -45 26 2 7 0 13 -6 13 -6 0 -36 21
-67 46 -31 26 -84 60 -117 75 -39 19 -65 39 -75 58 -58 110 -173 235 -251 272
-50 24 -65 49 -29 49 10 0 24 9 30 21 10 17 8 24 -11 40 -25 22 -41 25 -38 7
1 -7 1 -22 0 -33 -2 -28 -14 -9 -40 60 -39 105 -154 283 -236 365 -42 42 -43
50 -10 50 14 0 25 -5 25 -10 0 -6 11 -16 25 -22 16 -7 25 -19 25 -33 0 -13 11
-30 26 -40 15 -9 24 -13 22 -8 -2 4 -12 26 -22 48 -10 22 -26 49 -35 60 -10
11 -23 40 -30 65 -7 25 -24 63 -36 85 -30 51 -60 129 -69 176 -6 35 -5 36 19
31 14 -2 25 -1 25 2 0 4 -21 37 -46 74 -56 79 -86 159 -82 216 l3 41 53 -3
c35 -2 51 1 47 8 -3 5 -13 10 -21 10 -8 0 -12 5 -9 10 4 6 -7 32 -23 58 -44
69 -108 292 -85 292 5 0 37 -9 71 -20 70 -22 176 -28 135 -8 -13 6 -23 17 -23
23 0 7 -8 19 -17 26 -16 13 -17 12 -4 -4 17 -22 7 -34 -14 -17 -8 7 -13 20
-10 30 3 9 -6 42 -20 74 -14 31 -24 60 -23 64 1 4 -4 20 -10 35 -12 29 -17
177 -6 177 3 0 20 -12 38 -27 38 -32 144 -83 171 -83 19 1 18 2 -4 21 -35 29
-109 147 -122 194 -6 22 -19 54 -30 71 -23 38 -51 115 -44 122 2 3 22 -11 43
-30 41 -37 127 -76 140 -64 4 4 0 13 -8 19 -45 34 -85 169 -101 342 -13 137
-8 180 22 219 39 50 101 21 155 -72 24 -40 27 -58 28 -127 0 -61 -5 -91 -21
-127 -12 -27 -19 -48 -14 -48 21 0 132 94 159 135 52 78 67 136 67 260 0 127
-17 188 -70 258 l-34 44 61 7 c71 7 150 40 209 88 44 36 89 103 89 134 0 11
-8 3 -19 -21 -11 -25 -37 -54 -67 -75 -49 -35 -49 -35 -156 -34 -99 0 -111 3
-172 33 -37 18 -64 37 -61 42 4 5 3 14 -1 20 -5 8 -9 8 -14 -1 -4 -7 -13 -9
-19 -6 -6 4 -9 12 -6 17 4 5 0 9 -8 9 -18 0 -83 87 -114 154 -26 55 -26 73 -1
54 15 -11 24 -35 27 -71 1 -5 5 -6 10 -3 5 4 21 2 36 -4 22 -8 26 -7 24 8 -1
9 -1 25 0 36 1 17 3 17 25 3 51 -34 76 -64 70 -83 -4 -11 -4 -16 1 -12 8 7 35
-14 35 -29 1 -11 108 -63 145 -69 45 -9 115 -9 158 0 41 8 107 64 107 90 0 20
-8 20 -53 1 -58 -24 -120 -20 -156 11 -32 27 -40 44 -20 44 7 0 30 15 53 34
23 18 77 52 120 75 72 38 81 40 95 26 9 -9 21 -41 26 -73 l10 -57 47 -9 c27
-5 50 -7 52 -5 3 3 10 45 17 95 13 105 1 164 -53 266 -27 50 -29 60 -19 90 18
51 45 80 92 97 26 10 49 26 56 41 17 33 16 103 0 167 -15 57 -48 115 -55 95
-7 -21 -31 -13 -38 13 -6 25 -6 25 -33 7 -50 -35 -51 -35 -49 2 2 43 11 52
183 176 72 52 152 112 178 134 39 31 51 37 58 25 9 -15 10 -13 13 30 1 8 21
20 46 27 25 7 64 19 88 26 37 11 44 10 52 -2 14 -22 12 -30 -7 -36 -10 -4 -32
-12 -50 -20 -17 -8 -45 -14 -61 -14 -24 0 -39 -10 -70 -47 -43 -52 -86 -87
-234 -194 -54 -39 -98 -75 -98 -80 0 -29 40 -11 146 65 66 47 148 101 184 118
36 18 68 37 71 41 4 5 16 14 27 20 12 7 55 36 97 64 42 29 95 57 118 63 60 15
117 40 154 67 17 13 36 23 42 23 5 0 32 11 59 25 28 14 96 34 152 46 57 11
119 28 139 38 52 26 105 42 175 53 34 5 88 13 121 18 33 5 80 12 105 15 25 3
63 9 85 13 57 12 246 13 340 3z m1980 -1 c3 -5 1 -10 -4 -10 -6 0 -11 5 -11
10 0 6 2 10 4 10 3 0 8 -4 11 -10z m-135 -10 c0 -5 -5 -10 -11 -10 -5 0 -7 5
-4 10 3 6 8 10 11 10 2 0 4 -4 4 -10z m-250 -20 c0 -5 -4 -10 -10 -10 -5 0
-10 5 -10 10 0 6 5 10 10 10 6 0 10 -4 10 -10z m557 -16 c-3 -3 -12 -4 -19 -1
-8 3 -5 6 6 6 11 1 17 -2 13 -5z m-990 -66 c32 -23 51 -44 44 -46 -6 -2 -41 1
-77 8 -43 8 -100 10 -169 5 -92 -6 -105 -5 -105 9 0 9 6 16 13 16 6 0 26 7 42
16 37 21 86 31 148 33 41 1 55 -5 104 -41z m1183 8 c0 -3 -4 -8 -10 -11 -5 -3
-10 -1 -10 4 0 6 5 11 10 11 6 0 10 -2 10 -4z m-3520 -16 c4 0 11 -7 14 -15 4
-11 -3 -19 -21 -26 -33 -12 -61 -3 -59 19 1 19 24 33 44 26 8 -2 17 -4 22 -4z
m-1685 -36 c0 -22 -6 -31 -27 -38 -39 -14 -44 -3 -18 39 26 41 45 41 45 -1z
m4600 26 c-28 -12 -37 -12 -30 0 3 6 16 10 28 9 21 0 21 -1 2 -9z m-3779 -31
l91 -23 -36 -46 c-20 -26 -48 -52 -62 -59 -14 -6 -41 -25 -60 -42 -19 -17 -49
-38 -66 -45 -18 -8 -33 -20 -34 -27 0 -6 -4 -3 -9 8 l-8 20 -7 -20 c-31 -93
-67 -132 -155 -169 -34 -14 -36 -13 -47 10 -8 18 -8 24 0 24 7 0 35 11 62 24
33 16 43 25 29 25 -28 1 -35 10 -24 30 4 9 13 27 19 41 7 14 9 17 6 7 -3 -10
-1 -15 5 -12 6 3 10 13 10 20 0 8 12 22 28 32 15 10 29 20 32 23 3 3 16 13 30
21 16 10 26 27 28 44 3 36 10 45 28 38 13 -5 15 2 14 38 -3 66 -2 71 18 66 9
-3 58 -15 108 -28z m773 -5 c2 -2 -3 -4 -13 -4 -9 0 -31 -7 -48 -16 -30 -16
-31 -10 -5 23 8 11 52 9 66 -3z m3321 -4 c0 -5 -9 -6 -20 -3 -11 3 -20 9 -20
13 0 5 9 6 20 3 11 -3 20 -9 20 -13z m365 -19 c-3 -6 -11 -11 -17 -11 -6 0 -6
6 2 15 14 17 26 13 15 -4z m191 -10 c-4 -6 -16 -11 -27 -11 -12 0 -17 4 -14
11 4 6 13 8 21 5 9 -3 11 0 7 12 -5 13 -3 14 7 5 7 -6 9 -16 6 -22z m-652 -5
c-4 -10 24 -17 108 -26 71 -8 152 -25 216 -46 57 -19 109 -34 116 -34 7 0 34
-11 62 -25 27 -15 41 -24 32 -21 -10 3 -18 1 -18 -4 0 -11 54 -36 98 -45 18
-4 31 -10 28 -13 -4 -3 13 -18 36 -34 40 -27 41 -28 13 -22 -16 4 -61 20 -100
36 -38 16 -88 33 -110 38 -22 4 -67 16 -100 25 -171 48 -304 67 -329 46 -12
-10 -16 -8 -21 9 -3 11 -23 29 -43 39 -41 21 -78 57 -65 64 4 2 21 7 36 11 15
4 25 11 22 16 -3 5 1 7 9 4 8 -3 13 -11 10 -18z m563 -2 c-3 -3 -12 -4 -19 -1
-8 3 -5 6 6 6 11 1 17 -2 13 -5z m-5503 -191 c-7 -18 -14 -33 -16 -33 -2 0 -4
23 -6 52 -1 29 -7 55 -13 59 -7 4 -3 24 13 60 l23 54 6 -80 c4 -55 2 -90 -7
-112z m5471 167 c-3 -5 -12 -10 -18 -10 -7 0 -6 4 3 10 19 12 23 12 15 0z
m-3865 -5 c0 -7 -74 -55 -86 -55 -6 0 -10 10 -9 23 4 33 4 34 19 15 12 -16 14
-16 42 2 33 21 34 22 34 15z m3933 -2 c-7 -2 -19 -2 -25 0 -7 3 -2 5 12 5 14
0 19 -2 13 -5z m-5449 -106 c-3 -8 -12 -18 -20 -21 -20 -8 -18 21 3 33 21 12
25 9 17 -12z m6211 -15 c-3 -3 -11 0 -18 7 -9 10 -8 11 6 5 10 -3 15 -9 12
-12z m-1102 -20 c7 -5 28 -13 47 -17 89 -19 343 -125 412 -172 23 -16 25 -20
13 -37 -13 -18 -15 -18 -42 2 -36 25 -158 78 -300 131 -82 30 -128 41 -169 41
-41 0 -63 5 -81 20 -14 11 -35 20 -46 20 -20 0 -21 0 -1 15 21 16 146 14 167
-3z m-5275 -38 c-3 -14 -7 -10 -16 16 -12 32 -11 34 4 19 9 -9 14 -25 12 -35z
m5002 26 c0 -11 -2 -20 -5 -20 -2 0 -9 9 -15 20 -9 16 -8 20 5 20 8 0 15 -9
15 -20z m60 -42 c0 -18 -27 11 -33 35 -6 22 -6 22 14 -2 10 -13 19 -28 19 -33z
m23 38 c4 -10 1 -13 -8 -9 -8 3 -12 9 -9 14 7 12 11 11 17 -5z m-53 -41 c0 -5
-5 -3 -10 5 -5 8 -10 20 -10 25 0 6 5 3 10 -5 5 -8 10 -19 10 -25z m-5370 5
c0 -5 -5 -10 -11 -10 -5 0 -7 5 -4 10 3 6 8 10 11 10 2 0 4 -4 4 -10z m5479
-57 c2 -2 -3 -3 -11 -3 -9 0 -19 7 -22 16 -6 15 -4 15 11 3 10 -7 20 -15 22
-16z m-5119 13 c0 -3 -4 -8 -10 -11 -5 -3 -10 -1 -10 4 0 6 5 11 10 11 6 0 10
-2 10 -4z m5206 -21 c-3 -8 -1 -15 5 -15 6 0 7 -5 4 -11 -5 -6 -12 -4 -20 8
-14 19 -11 33 7 33 5 0 8 -7 4 -15z m31 -75 c4 -27 1 -25 -17 9 -9 19 -9 22 1
19 7 -2 14 -15 16 -28z m853 20 c11 -7 3 -10 -28 -10 -26 0 -41 4 -37 10 8 13
45 13 65 0z m50 0 c-8 -5 -19 -10 -25 -10 -5 0 -3 5 5 10 8 5 20 10 25 10 6 0
3 -5 -5 -10z m-709 -42 c95 -50 129 -79 129 -107 0 -26 -39 -46 -74 -37 -31 8
-174 141 -163 152 4 5 17 3 27 -4 31 -19 35 -14 10 13 -32 35 -20 32 71 -17z
m597 10 c-2 -7 -20 -21 -39 -31 -44 -23 -113 -18 -142 12 -21 20 -21 21 -2 21
11 -1 39 -4 61 -9 28 -5 51 -4 70 5 38 16 57 17 52 2z m177 -28 c-3 -5 -11
-10 -16 -10 -6 0 -7 5 -4 10 3 6 11 10 16 10 6 0 7 -4 4 -10z m-963 -17 c23
-28 33 -50 12 -28 -10 11 -25 26 -33 33 -8 6 -10 12 -4 12 5 0 17 -8 25 -17z
m46 5 c7 -7 12 -20 12 -30 0 -10 5 -18 12 -18 6 0 8 -3 5 -6 -4 -4 3 -15 15
-25 11 -11 17 -19 13 -19 -4 0 0 -9 10 -20 10 -11 24 -20 31 -20 18 0 28 -20
17 -31 -15 -15 -123 109 -123 142 0 7 -8 18 -17 25 -15 11 -16 13 -2 14 8 0
20 -5 27 -12z m-4448 -27 c0 -13 -29 -41 -42 -41 -7 0 -1 11 12 25 26 27 30
30 30 16z m-615 -20 c6 -1 2 -6 -7 -12 -20 -11 -24 -44 -8 -54 13 -8 -21 -40
-72 -66 -89 -46 -202 -188 -192 -243 4 -26 3 -27 -11 -12 -9 9 -18 16 -21 16
-9 0 -3 -20 11 -34 12 -12 22 -13 42 -5 36 13 41 4 12 -27 -20 -21 -21 -27 -9
-34 8 -5 11 -10 5 -10 -5 0 -3 -5 5 -11 12 -9 12 -10 -3 -5 -53 17 -63 17 -82
-4 -19 -21 -23 -51 -25 -198 0 -30 -1 -32 -16 -18 -19 20 -30 20 -38 1 -8 -22
-33 -18 -39 5 -3 12 -14 20 -27 20 -12 0 -18 4 -15 10 4 6 10 8 15 5 13 -8 18
27 7 55 -27 73 -34 115 -21 128 8 7 14 20 13 30 0 10 -3 12 -6 4 -2 -6 -8 -10
-13 -7 -10 6 9 86 26 106 8 8 14 20 14 26 0 33 106 165 190 234 65 55 88 67
159 89 48 15 67 17 106 11z m5031 -51 c4 -16 11 -28 16 -27 6 1 12 -3 15 -9 9
-26 -44 -10 -65 20 -20 28 -21 31 -5 38 30 11 33 9 39 -22z m-4431 10 c4 6 11
8 16 5 13 -8 -46 -115 -64 -115 -3 0 0 16 6 36 9 31 9 37 -7 46 -25 14 -2 42
24 28 13 -7 21 -7 25 0z m160 -65 c0 -60 -146 -137 -241 -127 -37 3 -43 8 -61
45 -21 45 -18 82 8 82 8 0 31 -13 49 -29 42 -35 66 -31 152 23 74 46 93 48 93
6z m5060 20 c-22 -8 -48 -14 -57 -14 -10 -1 -18 -6 -18 -12 0 -5 -4 -7 -10 -4
-8 5 -50 -14 -105 -48 -11 -6 -42 -29 -69 -51 -38 -31 -50 -36 -57 -25 -5 8
-9 11 -9 7 0 -3 -3 -13 -6 -22 -4 -11 3 -19 22 -27 26 -9 27 -11 11 -20 -10
-6 -28 -9 -40 -7 -40 6 -31 36 30 99 93 98 178 138 288 137 l60 0 -40 -13z
m-5544 -61 c25 -11 27 -14 9 -10 -14 3 -42 6 -62 6 -21 0 -38 5 -38 10 0 15
53 12 91 -6z m544 -11 c-4 -10 -10 -40 -14 -66 -5 -27 -12 -52 -17 -56 -28
-23 -233 -66 -247 -52 -5 5 -15 7 -21 5 -7 -3 -12 5 -12 19 0 15 6 24 18 24
10 1 18 -5 18 -13 0 -19 26 -18 34 2 3 9 13 14 20 11 8 -3 26 3 40 14 14 11
33 19 43 17 12 -2 18 3 17 14 -1 10 1 16 5 14 3 -2 17 2 31 10 22 12 22 13 5
14 -18 0 -18 1 -3 16 8 9 27 17 42 17 14 1 26 8 26 15 0 6 5 12 11 12 7 0 8
-7 4 -17z m4386 0 c13 -16 12 -17 -3 -4 -10 7 -18 15 -18 17 0 8 8 3 21 -13z
m-5111 -1 c0 -5 -18 -26 -41 -47 -42 -38 -101 -126 -106 -156 -1 -9 -8 -29
-14 -45 -7 -16 -12 -32 -11 -36 3 -13 -15 -9 -28 7 -7 8 -21 15 -32 15 -14 0
-18 5 -14 16 3 9 6 22 6 31 0 9 6 13 15 9 8 -3 15 -1 15 4 0 6 -5 10 -11 10
-7 0 -5 9 5 23 9 12 22 36 30 52 19 42 69 87 119 107 47 19 67 22 67 10z
m4713 -7 c8 -18 -11 -31 -25 -17 -11 11 -3 32 12 32 4 0 10 -7 13 -15z m675 6
c10 -6 6 -11 -15 -19 -80 -32 -196 -41 -229 -18 -28 21 -17 23 59 17 37 -4 70
-4 73 -2 3 3 17 7 31 9 15 2 34 7 42 12 20 12 23 12 39 1z m-5162 -56 c10 -8
17 -15 14 -15 -3 -1 -25 -2 -50 -3 -59 -4 -91 -26 -124 -86 -21 -40 -27 -63
-27 -120 -1 -85 6 -109 39 -142 25 -24 28 -24 57 -11 40 20 42 22 26 31 -11 7
-9 13 7 29 14 14 23 17 30 10 6 -6 21 -11 34 -12 23 -1 26 -10 12 -53 -3 -13
-2 -23 4 -23 5 0 13 16 17 36 5 29 10 35 26 31 12 -3 19 0 19 10 0 11 7 14 27
8 33 -8 84 -50 75 -61 -4 -5 0 -3 8 4 8 6 25 12 38 12 13 0 20 4 17 10 -3 6
-23 10 -44 10 -40 0 -61 14 -61 40 0 23 121 79 156 72 32 -6 106 -78 123 -120
11 -25 11 -35 1 -47 -6 -8 -9 -19 -5 -25 4 -6 -6 -10 -24 -10 -17 0 -49 -7
-71 -16 -22 -9 -47 -13 -55 -10 -10 3 -13 2 -10 -5 4 -6 -3 -7 -19 -3 -22 5
-26 3 -26 -14 0 -12 -14 -30 -30 -42 -35 -25 -110 -39 -110 -21 0 6 -4 11 -10
11 -5 0 -7 -6 -4 -14 5 -13 -29 -29 -40 -18 -3 3 -21 7 -38 9 -18 2 -51 16
-73 31 -78 55 -113 138 -115 275 -2 139 16 206 61 227 7 4 23 12 34 18 29 16
88 14 111 -3z m4499 5 c-3 -5 -12 -10 -20 -10 -8 0 -17 5 -20 10 -4 6 5 10 20
10 15 0 24 -4 20 -10z m1052 -59 c21 -11 55 -23 75 -26 39 -7 73 -34 47 -36
-76 -7 -193 41 -174 70 8 14 8 14 52 -8z m-6708 2 c0 -5 -4 -17 -9 -28 -8 -18
-9 -17 -9 8 -1 15 4 27 9 27 6 0 10 -3 9 -7z m6458 -19 c-3 -3 -12 -4 -19 -1
-8 3 -5 6 6 6 11 1 17 -2 13 -5z m127 -89 c62 -26 37 -26 -49 0 -44 14 -86 25
-93 25 -7 0 -29 7 -50 15 -26 12 -33 18 -23 24 13 8 123 -25 215 -64z m-5258
26 c-6 -2 -16 -7 -21 -12 -7 -5 -10 1 -9 19 2 38 2 38 23 16 11 -12 14 -20 7
-23z m4872 19 c-7 -11 -21 -20 -30 -20 -30 0 -67 -22 -61 -36 3 -9 -2 -14 -12
-14 -12 0 -15 -5 -11 -17 4 -9 1 -20 -6 -25 -8 -4 6 -6 32 -4 25 2 35 2 23 -1
-13 -2 -23 -9 -23 -14 0 -6 4 -7 10 -4 5 3 20 -1 34 -10 13 -9 29 -14 36 -13
6 2 16 -7 21 -20 8 -21 7 -23 -14 -16 -12 3 -32 16 -44 27 -13 11 -23 16 -23
10 0 -6 -7 -13 -15 -17 -8 -3 -14 0 -12 6 1 6 -10 11 -24 12 -37 2 -27 -27 22
-62 21 -15 39 -31 39 -35 0 -5 -12 0 -27 11 -46 32 -103 45 -196 47 -64 1 -91
5 -97 15 -6 9 -4 18 3 23 7 5 -3 6 -23 2 l-35 -6 30 26 c70 60 188 112 315
139 95 21 103 20 88 -4z m412 -25 c0 -8 -4 -15 -10 -15 -5 0 -7 7 -4 15 4 8 8
15 10 15 2 0 4 -7 4 -15z m-5980 -5 c0 -5 -2 -10 -4 -10 -3 0 -8 5 -11 10 -3
6 -1 10 4 10 6 0 11 -4 11 -10z m6112 -13 c35 -15 49 -43 16 -32 -13 4 -42 10
-66 14 -24 5 -51 16 -60 25 -15 15 -13 16 33 10 28 -3 62 -11 77 -17z m-309 0
c18 4 19 3 7 -6 -13 -9 -8 -15 11 -13 4 1 15 -8 25 -19 16 -18 16 -19 1 -13
-12 4 -16 2 -12 -8 3 -8 -6 -27 -20 -44 -25 -30 -30 -46 -26 -99 4 -60 10 -77
41 -112 17 -19 30 -37 28 -39 -8 -7 -47 9 -42 17 3 5 -3 12 -13 16 -10 4 -21
11 -25 17 -5 7 -8 7 -8 -1 0 -7 -9 -13 -21 -13 -26 0 -129 98 -122 117 3 7 -2
32 -11 55 -11 25 -13 43 -7 47 5 4 9 13 9 21 -2 29 2 50 10 50 4 0 7 -16 7
-35 0 -19 5 -34 10 -32 6 1 9 5 8 10 -2 4 4 7 12 7 13 0 21 32 16 63 -2 10 36
-10 44 -23 3 -6 16 -10 28 -10 20 1 20 2 -6 16 -30 16 -27 39 4 29 12 -4 19
-2 20 7 0 8 2 9 5 2 3 -7 15 -10 27 -7z m267 -53 c16 -10 18 -13 5 -8 -11 4
-30 7 -42 7 -13 -1 -23 3 -23 8 0 14 32 10 60 -7z m-6013 -26 c-3 -8 -6 -5 -6
6 -1 11 2 17 5 13 3 -3 4 -12 1 -19z m6458 -8 c15 -28 21 -80 9 -80 -16 0 -43
49 -44 78 0 40 15 41 35 2z m-375 4 c0 -2 -7 -4 -15 -4 -8 0 -15 4 -15 10 0 5
7 7 15 4 8 -4 15 -8 15 -10z m-6025 -14 c3 -6 -1 -7 -9 -4 -18 7 -21 14 -7 14
6 0 13 -4 16 -10z m-185 -40 c0 -5 -4 -10 -10 -10 -5 0 -10 5 -10 10 0 6 5 10
10 10 6 0 10 -4 10 -10z m6324 -6 c3 -8 2 -12 -4 -9 -6 3 -10 10 -10 16 0 14
7 11 14 -7z m-1095 -8 c9 -11 6 -12 -14 -8 -14 2 -28 8 -31 13 -9 15 33 10 45
-5z m1241 -14 c0 -5 24 -45 54 -90 30 -44 57 -90 61 -101 3 -12 11 -19 16 -16
11 7 79 -14 97 -31 11 -9 4 -9 -32 -1 -25 6 -46 14 -46 19 0 5 -4 6 -10 3 -5
-3 -10 -14 -10 -23 -1 -41 -15 -43 -76 -12 -52 27 -71 31 -139 32 -49 0 -81
-4 -83 -11 -5 -16 -22 -13 -22 4 0 8 -4 15 -9 15 -5 0 -14 -7 -21 -15 -28 -33
-28 -12 0 32 17 26 30 52 30 57 0 6 13 11 29 12 22 1 31 -5 39 -25 9 -25 10
-25 11 -3 1 15 7 22 22 22 11 0 18 4 14 9 -3 5 7 8 22 7 16 -2 31 1 34 6 3 4
22 2 42 -7 45 -19 47 -8 7 35 -16 17 -29 35 -28 38 1 4 -3 17 -10 30 -8 14 -9
22 -2 22 5 0 10 -4 10 -8z m-6271 -39 c-5 -14 -7 -53 -5 -87 l6 -61 -13 55
c-7 30 -21 67 -31 82 -18 28 -12 36 31 37 20 1 21 -2 12 -26z m6127 -20 c24
-37 13 -34 -28 8 -31 31 -33 36 -13 27 14 -6 32 -22 41 -35z m-6646 22 c0 -18
-35 -55 -52 -55 -6 0 -1 11 12 25 13 14 20 25 16 25 -4 0 -4 5 -1 10 9 15 25
12 25 -5z m93 -36 c-8 -29 -13 -23 -13 14 0 22 3 28 9 18 5 -7 6 -22 4 -32z
m227 31 c0 -5 -2 -10 -4 -10 -3 0 -8 5 -11 10 -3 6 -1 10 4 10 6 0 11 -4 11
-10z m30 0 c0 -5 -5 -10 -11 -10 -5 0 -7 5 -4 10 3 6 8 10 11 10 2 0 4 -4 4
-10z m6110 -41 c0 -6 -4 -7 -10 -4 -5 3 -10 11 -10 16 0 6 5 7 10 4 6 -3 10
-11 10 -16z m-6345 -29 c3 -5 -1 -10 -10 -10 -9 0 -13 5 -10 10 3 6 8 10 10
10 2 0 7 -4 10 -10z m223 -37 c13 -13 12 -14 -18 -17 -8 0 -14 -9 -14 -18 1
-10 -4 -14 -12 -11 -17 6 -19 23 -3 23 7 0 9 10 5 25 -5 20 -3 23 11 18 10 -4
24 -13 31 -20z m5655 0 c-7 -2 -19 -2 -25 0 -7 3 -2 5 12 5 14 0 19 -2 13 -5z
m-5857 -30 c-1 -13 6 -18 26 -18 14 1 25 -3 22 -6 -2 -4 5 -11 17 -14 19 -6
19 -8 3 -19 -19 -14 -19 -14 51 -17 19 0 44 -10 56 -20 12 -10 28 -19 36 -19
8 0 11 -5 8 -10 -4 -6 -15 -8 -25 -5 -15 5 -19 0 -22 -22 l-3 -28 -22 22 c-15
15 -25 19 -29 11 -5 -7 -10 -4 -15 10 -8 21 -71 61 -119 74 -19 5 -16 6 13 5
42 -3 48 7 15 24 -30 16 -40 32 -25 41 7 4 13 8 13 8 1 0 1 -8 0 -17z m397
-25 c14 -16 18 -48 6 -48 -8 0 -13 15 -10 33 0 4 -3 7 -9 7 -5 0 -10 5 -10 10
0 14 9 13 23 -2z m5837 -2 c0 -9 -30 -14 -35 -6 -4 6 3 10 14 10 12 0 21 -2
21 -4z m-5740 -32 c0 -8 -5 -12 -10 -9 -6 4 -8 11 -5 16 9 14 15 11 15 -7z
m-570 -4 c0 -5 -4 -10 -10 -10 -5 0 -10 5 -10 10 0 6 5 10 10 10 6 0 10 -4 10
-10z m6920 -12 c0 -4 -9 -8 -20 -8 -11 0 -20 -6 -20 -14 0 -16 -18 -31 -27
-22 -11 11 25 52 46 52 11 0 21 -4 21 -8z m-904 -78 c10 0 36 -51 30 -57 -2
-2 -11 3 -20 13 -11 10 -25 14 -41 10 -29 -7 -75 2 -75 15 0 5 14 12 30 16 18
3 30 12 30 21 0 13 2 13 18 -1 10 -10 23 -17 28 -17z m121 -20 c42 -25 59 -46
26 -32 -35 15 -83 47 -83 55 0 10 3 9 57 -23z m186 -7 c32 -16 37 -37 6 -28
-25 8 -89 45 -89 51 0 7 53 -8 83 -23z m332 -1 c4 -23 -29 -60 -40 -43 -6 10
25 74 32 67 2 -2 5 -13 8 -24z m-6325 -27 c0 -6 -15 -11 -32 -11 -18 0 -42 -4
-53 -9 -20 -8 -20 -8 -1 11 21 21 86 28 86 9z m-186 -11 c3 -8 2 -12 -4 -9 -6
3 -10 10 -10 16 0 14 7 11 14 -7z m230 7 c3 -5 -1 -12 -9 -15 -11 -4 -14 -14
-9 -33 4 -20 3 -24 -4 -14 -5 7 -15 10 -21 7 -17 -11 -13 25 6 46 18 20 29 23
37 9z m5753 -13 c-10 -5 -14 -16 -11 -26 5 -14 4 -14 -4 -3 -12 16 6 53 21 44
5 -3 2 -10 -6 -15z m-34 -33 c36 -45 29 -45 -12 0 -17 19 -28 35 -24 35 5 0
21 -16 36 -35z m-5684 1 c8 -13 10 -29 7 -35 -4 -6 0 -11 11 -11 15 0 15 -2 3
-9 -8 -6 -17 -8 -20 -6 -3 2 -5 -8 -5 -21 0 -18 5 -24 23 -24 12 0 22 5 22 10
0 6 5 10 10 10 6 0 10 -8 10 -18 0 -13 -7 -18 -22 -18 -17 1 -23 -5 -23 -19 0
-32 -39 -31 -60 1 -10 15 -30 40 -46 55 -16 16 -29 33 -29 39 0 5 -7 10 -15
10 -18 0 -20 19 -2 26 16 6 69 -20 60 -29 -12 -13 18 -7 48 8 30 16 31 35 3
35 -8 0 -12 5 -9 10 10 16 21 12 34 -14z m-609 5 c0 -24 -14 -41 -33 -41 -20
0 -20 -1 -2 -13 17 -13 16 -16 -18 -53 l-36 -39 -27 27 -27 27 33 38 c19 21
35 37 37 36 1 -1 15 4 30 12 33 17 43 19 43 6z m403 -17 c9 -4 17 -10 17 -15
0 -16 -19 -10 -41 12 -12 12 -15 19 -8 15 8 -3 22 -9 32 -12z m-516 -16 c-3
-8 -6 -5 -6 6 -1 11 2 17 5 13 3 -3 4 -12 1 -19z m7072 -44 c1 -15 -30 -28
-39 -17 -4 4 -1 24 8 43 15 35 15 35 23 10 4 -14 7 -30 8 -36z m-248 8 c5 -44
2 -67 -10 -79 -12 -13 -11 -21 8 -66 13 -29 25 -60 28 -69 3 -10 13 -20 24
-23 11 -4 16 -12 12 -21 -3 -8 1 -14 11 -14 9 0 22 -16 30 -35 8 -19 23 -38
32 -42 15 -6 15 -7 -2 -20 -16 -12 -16 -13 -1 -13 9 0 17 -4 17 -10 0 -5 7 -7
16 -3 14 5 16 1 12 -26 -4 -27 -1 -35 19 -44 15 -6 23 -19 23 -34 0 -13 4 -22
8 -19 5 3 7 -10 6 -29 -2 -27 1 -35 17 -40 16 -5 18 -9 8 -21 -10 -12 -9 -13
5 -8 21 8 21 -4 -1 -28 -17 -19 -16 -19 12 -13 17 4 25 3 19 -2 -17 -12 -13
-44 8 -65 11 -11 18 -13 18 -6 0 7 8 2 17 -12 12 -17 13 -25 5 -28 -8 -2 -9
-9 -3 -20 6 -12 4 -24 -5 -37 -8 -10 -14 -14 -14 -9 0 6 -14 26 -31 45 -18 19
-29 28 -25 21 4 -7 2 -20 -6 -29 -11 -14 -10 -15 12 -8 14 4 22 4 18 0 -4 -4
-3 -16 2 -26 8 -14 6 -19 -10 -24 -22 -7 -28 -35 -7 -36 10 0 10 -2 0 -6 -8
-3 -13 -25 -13 -58 0 -30 -4 -56 -8 -59 -5 -3 -10 -26 -10 -51 -2 -34 -19 -78
-67 -174 -36 -71 -65 -134 -65 -140 0 -5 -4 -12 -9 -16 -6 -3 -6 8 -1 27 17
62 19 108 5 108 -20 0 -26 58 -14 122 8 38 16 58 26 58 8 0 13 8 12 18 -1 9 3
34 9 56 9 30 8 47 -3 80 -7 22 -13 58 -13 79 0 21 -6 45 -13 54 -12 15 -12 16
4 10 18 -7 25 17 7 28 -5 3 -10 11 -10 18 0 6 6 2 14 -9 8 -10 18 -16 21 -12
4 4 0 15 -9 24 -9 9 -20 30 -23 46 -3 16 -12 32 -19 35 -8 3 -14 9 -14 14 0 6
8 6 19 0 10 -6 22 -7 26 -3 5 4 5 1 1 -5 -4 -7 -2 -13 4 -13 7 0 9 -8 5 -21
-5 -14 -3 -19 3 -15 6 4 16 -3 22 -14 6 -11 18 -20 28 -20 14 0 13 4 -6 18
-16 13 -19 21 -12 28 8 8 7 16 -4 27 -11 10 -12 17 -5 19 15 5 -33 58 -52 58
-28 1 -45 25 -46 69 -2 38 0 42 17 38 10 -3 21 0 23 7 2 6 -17 16 -47 23 -48
12 -49 12 -8 8 23 -3 42 -1 42 4 0 19 -31 94 -49 120 -11 16 -18 31 -14 35 3
3 1 6 -6 6 -7 0 -10 4 -6 10 3 5 13 7 23 4 10 -3 9 0 -4 6 -11 6 -27 26 -36
43 -20 41 -58 178 -58 211 0 23 2 24 30 15 17 -6 30 -14 31 -17z m-6861 -3
c-7 -11 -14 -18 -17 -15 -3 3 0 12 7 21 18 21 23 19 10 -6z m570 1 c-8 -5 -19
-10 -25 -10 -5 0 -3 5 5 10 8 5 20 10 25 10 6 0 3 -5 -5 -10z m6840 0 c-8 -5
-22 -10 -30 -10 -13 0 -13 1 0 10 8 5 22 10 30 10 13 0 13 -1 0 -10z m-7068
-72 c-23 -21 -46 -38 -52 -38 -16 0 19 48 39 55 10 3 24 17 32 32 12 22 15 23
18 8 2 -12 -12 -33 -37 -57z m6358 50 c30 -19 32 -22 15 -26 -20 -4 -74 -42
-61 -42 4 0 4 -5 1 -10 -5 -8 -11 -7 -21 1 -17 14 -18 30 -1 23 7 -2 21 2 32
10 19 14 18 16 -27 36 -27 11 -48 23 -48 25 0 14 80 2 110 -17z m-6780 2 c0
-5 -6 -10 -12 -10 -9 0 -8 -4 2 -10 13 -8 12 -10 -2 -10 -18 0 -24 20 -11 33
10 10 23 8 23 -3z m710 0 c0 -5 -4 -10 -10 -10 -5 0 -10 5 -10 10 0 6 5 10 10
10 6 0 10 -4 10 -10z m-763 -22 c-3 -8 -6 -5 -6 6 -1 11 2 17 5 13 3 -3 4 -12
1 -19z m98 -8 c-3 -5 -16 -15 -28 -21 -21 -10 -21 -9 2 10 25 23 36 27 26 11z
m59 -46 c-8 -6 -14 -16 -14 -21 0 -35 -282 -192 -307 -171 -10 8 -13 6 -13 -6
0 -13 -46 -46 -65 -46 -8 0 30 50 65 88 14 15 25 34 25 42 0 8 14 17 33 21 24
5 32 3 32 -7 0 -18 18 -18 55 2 17 9 44 20 60 23 21 5 33 15 40 36 6 17 21 45
34 63 l25 32 22 -22 c18 -19 20 -25 8 -34z m-153 22 c-9 -11 -9 -15 0 -18 7
-2 9 -10 5 -16 -9 -15 -36 -16 -36 -2 0 15 23 50 34 50 4 0 3 -6 -3 -14z
m-130 -69 c-13 -13 -15 21 -3 50 6 15 8 13 10 -11 2 -16 -1 -33 -7 -39z m7700
-6 c-8 -14 -8 -28 1 -48 15 -35 18 -62 7 -68 -4 -3 -11 0 -15 6 -3 6 -1 15 7
19 10 7 10 11 -1 25 -12 15 -15 15 -25 2 -9 -13 -16 -10 -48 19 -20 19 -37 44
-37 55 0 18 2 19 15 9 8 -7 15 -8 15 -2 0 5 9 12 19 15 13 3 21 -1 24 -15 4
-12 10 -17 17 -13 9 6 9 10 -1 17 -11 8 -10 9 4 4 11 -4 17 0 18 12 1 16 2 16
6 0 2 -9 -1 -26 -6 -37z m-7644 23 c0 -7 -6 -15 -14 -18 -8 -3 -13 2 -13 13 0
10 6 18 13 18 8 0 14 -6 14 -13z m1003 6 c0 -5 -2 -10 -4 -10 -3 0 -8 5 -11
10 -3 6 -1 10 4 10 6 0 11 -4 11 -10z m-760 -4 c0 -3 -4 -8 -10 -11 -5 -3 -10
-1 -10 4 0 6 5 11 10 11 6 0 10 -2 10 -4z m240 0 c0 -2 -7 -9 -15 -16 -13 -11
-14 -10 -9 4 5 14 24 23 24 12z m591 -21 c5 4 9 1 9 -4 0 -6 8 -11 18 -11 14
0 15 -2 2 -10 -25 -16 -49 -11 -61 11 -9 17 -8 23 2 30 9 6 15 3 17 -6 2 -9 8
-13 13 -10z m5609 15 c0 -5 -2 -10 -4 -10 -3 0 -8 5 -11 10 -3 6 -1 10 4 10 6
0 11 -4 11 -10z m682 -32 c-7 -7 -12 -8 -12 -2 0 14 12 26 19 19 2 -3 -1 -11
-7 -17z m-472 -10 c43 -25 48 -33 25 -41 -8 -4 -27 7 -45 24 -46 46 -40 51 20
17z m-6875 -8 c-3 -5 -11 -10 -16 -10 -6 0 -7 5 -4 10 3 6 11 10 16 10 6 0 7
-4 4 -10z m500 -147 c-9 -59 -20 -114 -23 -123 -9 -23 -21 53 -21 142 -1 68 1
79 21 92 38 27 42 5 23 -111z m7180 117 c3 -5 1 -10 -4 -10 -6 0 -11 5 -11 10
0 6 2 10 4 10 3 0 8 -4 11 -10z m-7289 -190 c1 -38 -1 -68 -5 -65 -5 2 -9 37
-10 77 -1 40 1 69 5 66 4 -4 8 -39 10 -78z m6279 25 c11 -1 31 -8 45 -14 22
-10 20 -11 -15 -5 -22 3 -47 8 -55 9 -8 2 -18 4 -22 4 -5 1 -8 6 -8 12 0 7 7
8 18 4 9 -5 26 -9 37 -10z m-6021 -72 c-58 -131 -146 -277 -187 -312 -14 -11
-19 -3 -36 54 -12 37 -21 77 -20 89 1 15 4 11 10 -12 6 -18 16 -35 24 -39 8
-3 13 -9 10 -13 -3 -5 0 -12 5 -15 14 -9 72 50 95 96 10 19 26 45 36 58 11 13
19 31 19 40 0 24 54 125 58 107 2 -8 -4 -32 -14 -53z m-354 31 c0 -8 -4 -12
-10 -9 -5 3 -10 10 -10 16 0 5 5 9 10 9 6 0 10 -7 10 -16z m65 -129 c17 -122
63 -285 79 -285 28 0 146 163 218 300 25 47 52 86 61 88 26 5 21 -39 -8 -82
-14 -20 -25 -41 -25 -46 0 -6 -4 -10 -9 -10 -5 0 -13 -10 -16 -22 -11 -37 -83
-155 -131 -214 -47 -57 -48 -64 -9 -38 14 9 25 14 25 11 0 -3 -28 -24 -62 -47
-70 -46 -67 -48 -99 50 -12 36 -26 70 -31 77 -5 7 -7 16 -5 20 3 5 -3 25 -13
45 -16 32 -16 40 -4 64 18 34 18 43 -1 18 -8 -10 -15 -14 -15 -7 0 6 -3 19 -7
29 -5 13 -3 16 10 11 9 -3 19 -2 22 3 4 6 -2 10 -12 10 -17 1 -17 1 0 11 10 6
16 18 13 27 -2 9 -7 44 -10 77 -9 96 11 34 29 -90z m365 125 c0 -5 -5 -10 -11
-10 -5 0 -7 5 -4 10 3 6 8 10 11 10 2 0 4 -4 4 -10z m7107 -6 c-3 -3 -12 -4
-19 -1 -8 3 -5 6 6 6 11 1 17 -2 13 -5z m-993 -40 c3 -8 2 -12 -4 -9 -6 3 -7
-1 -4 -9 3 -9 10 -14 15 -11 4 3 16 -6 25 -20 9 -14 36 -37 60 -51 24 -14 44
-27 44 -29 0 -6 -74 17 -102 31 -52 27 -87 95 -55 107 6 3 13 6 13 6 1 1 5 -6
8 -15z m-6444 -29 c0 -8 -2 -15 -4 -15 -2 0 -6 7 -10 15 -3 8 -1 15 4 15 6 0
10 -7 10 -15z m507 -7 c-31 -80 -40 -97 -48 -92 -5 3 -5 13 1 24 7 13 6 20 -1
22 -7 2 -9 13 -5 25 4 14 12 20 22 16 7 -3 14 0 14 6 0 6 5 11 11 11 6 0 9 -6
6 -12z m374 -45 c-9 -16 -10 -14 -11 12 0 21 3 26 11 18 8 -8 8 -16 0 -30z
m37 2 c-3 -3 -9 2 -12 12 -6 14 -5 15 5 6 7 -7 10 -15 7 -18z m-908 -13 c0
-15 -2 -15 -10 -2 -13 20 -13 33 0 25 6 -3 10 -14 10 -23z m6680 3 c5 -14 15
-25 21 -25 7 0 10 -3 7 -6 -9 -8 -48 19 -48 33 0 6 -6 14 -12 16 -8 3 -6 6 5
6 10 1 22 -10 27 -24z m-6926 -2 c3 -10 8 -37 11 -60 5 -34 3 -43 -9 -43 -10
0 -15 16 -18 60 -3 58 5 79 16 43z m6585 -22 c9 -6 11 -18 7 -35 -4 -15 -11
-24 -16 -21 -16 10 -11 -17 5 -29 17 -13 33 -116 18 -116 -6 0 -16 6 -23 14
-6 8 -18 12 -27 9 -13 -5 -15 4 -11 66 2 44 9 75 17 80 10 6 9 10 -4 15 -9 3
-13 10 -10 16 8 12 25 13 44 1z m-6609 -53 c0 -17 6 -31 15 -33 51 -16 50 -16
35 -25 -12 -8 -13 -10 -1 -10 11 0 10 -5 -4 -20 -10 -11 -14 -20 -10 -20 5 0
4 -5 -3 -12 -7 -7 -12 -20 -12 -30 0 -11 -7 -18 -20 -18 -13 0 -20 7 -20 20 0
11 -5 20 -11 20 -5 0 -7 -5 -4 -10 3 -6 0 -17 -8 -25 -13 -13 -16 -13 -21 0
-3 8 -13 15 -23 15 -13 0 -15 2 -5 9 7 4 12 12 10 17 -1 5 5 23 14 39 8 17 19
50 23 75 4 25 9 49 12 53 9 16 33 -16 33 -45z m721 -19 c-10 -24 -10 -24 -10
-1 -1 12 -5 22 -10 22 -6 0 -9 9 -8 20 1 20 2 20 19 2 15 -14 17 -24 9 -43z
m6309 47 c0 -3 -4 -8 -10 -11 -5 -3 -10 -1 -10 4 0 6 5 11 10 11 6 0 10 -2 10
-4z m-5850 -36 c4 0 6 -10 2 -22 -3 -14 -2 -19 6 -14 13 8 17 -6 5 -18 -4 -3
-8 -16 -10 -27 -4 -24 -34 -72 -41 -65 -2 3 3 24 12 47 11 27 15 57 12 88 -3
25 -3 38 0 29 3 -10 9 -18 14 -18z m6235 20 c-3 -5 -16 -10 -28 -10 -18 0 -19
2 -7 10 20 13 43 13 35 0z m210 -40 c-10 -11 -21 -17 -24 -14 -3 3 3 12 13 20
28 20 32 17 11 -6z m-1025 -121 c0 -6 -4 -7 -10 -4 -5 3 -10 11 -10 16 0 6 5
7 10 4 6 -3 10 -11 10 -16z m846 -20 c16 -13 70 -14 109 -3 14 4 17 3 10 -4
-21 -22 -132 -50 -167 -43 -41 10 -90 35 -107 55 -12 14 -4 15 63 12 43 -3 84
-10 92 -17z m-7436 -24 c0 -9 -7 -18 -15 -21 -8 -4 -12 -11 -9 -16 4 -6 1 -9
-7 -6 -18 6 -25 39 -7 36 7 -2 12 3 11 10 -2 6 4 12 12 12 8 0 15 -7 15 -15z
m-265 -32 c-5 -15 -8 -31 -7 -35 1 -5 -3 -8 -9 -8 -7 0 -8 7 -4 18 4 9 10 27
13 40 2 13 7 21 9 18 3 -3 2 -18 -2 -33z m6965 10 c0 -8 4 -12 8 -9 5 3 20 -1
35 -9 15 -7 29 -10 32 -5 2 4 22 2 42 -6 21 -7 54 -13 73 -14 53 0 23 -20 -42
-27 -33 -3 -71 0 -94 7 -46 15 -110 70 -92 81 16 10 38 0 38 -18z m-6870 -3
c0 -5 -5 -10 -11 -10 -5 0 -7 5 -4 10 3 6 8 10 11 10 2 0 4 -4 4 -10z m-60
-44 c0 -21 -35 -47 -54 -40 -24 9 -20 24 6 21 17 -1 24 4 26 21 3 23 22 21 22
-2z m210 4 c0 -5 -4 -10 -10 -10 -5 0 -10 5 -10 10 0 6 5 10 10 10 6 0 10 -4
10 -10z m0 -24 c0 -11 -19 -15 -25 -6 -3 5 1 10 9 10 9 0 16 -2 16 -4z m6765
-16 c4 -6 -9 -10 -32 -9 -34 1 -35 2 -13 9 35 11 38 11 45 0z m-7060 -47 c-8
-7 -20 -13 -27 -12 -10 0 -10 2 0 6 10 4 10 8 2 19 -18 21 -2 36 20 17 15 -13
16 -18 5 -30z m561 10 c-8 -8 -36 5 -36 17 0 7 6 7 21 0 11 -7 18 -14 15 -17z
m204 -14 c13 -9 13 -10 -2 -6 -9 3 -19 -1 -22 -9 -3 -8 -12 -14 -20 -14 -10 0
-13 -6 -10 -15 4 -8 16 -15 28 -15 l21 -1 -23 -19 c-20 -17 -21 -19 -5 -23 11
-3 5 -5 -12 -6 -21 -1 -26 -4 -17 -10 11 -7 10 -18 -8 -60 -21 -47 -40 -67
-40 -39 0 6 -7 4 -18 -5 -10 -10 -26 -17 -35 -17 -13 0 -14 6 -7 30 10 36 10
34 10 60 0 13 5 18 15 14 11 -5 13 -2 9 10 -3 9 -1 16 6 16 6 0 8 5 5 11 -4 6
2 13 13 16 11 3 26 18 32 34 7 16 18 29 25 29 7 0 15 7 19 15 6 18 16 19 36 4z
m-189 -16 c13 -17 13 -17 -6 -3 -11 8 -22 16 -24 17 -2 2 0 3 6 3 6 0 17 -8
24 -17z m182 -18 c-3 -9 -8 -14 -10 -11 -3 3 -2 9 2 15 9 16 15 13 8 -4z m131
-75 c13 -13 -16 -6 -39 8 -19 12 -18 13 5 6 14 -3 29 -10 34 -14z m6853 6 c6
-5 -51 -66 -62 -66 -20 0 -26 42 -8 62 13 15 52 17 70 4z m-6890 -18 c10 -17
11 -78 1 -78 -4 0 -5 -6 -2 -14 3 -8 -1 -30 -9 -48 -8 -18 -27 -66 -42 -105
-14 -40 -31 -75 -36 -79 -5 -3 -9 -16 -9 -30 0 -13 -5 -24 -12 -24 -6 0 -9 -3
-6 -6 9 -9 -46 -59 -61 -56 -9 3 -12 -3 -8 -17 6 -24 -21 -45 -41 -32 -15 9
-44 91 -32 91 5 0 12 -5 16 -11 12 -20 25 6 15 32 -7 17 -10 19 -10 7 -1 -27
-18 -22 -25 7 -7 28 8 65 27 65 9 0 9 -2 0 -8 -8 -5 -9 -13 -3 -22 8 -13 11
-12 23 4 8 11 12 29 10 40 -4 19 -3 20 10 4 13 -16 16 -16 33 -2 10 9 14 13 8
10 -6 -3 -20 2 -30 10 -17 14 -17 15 -1 10 9 -3 17 -1 17 3 0 5 7 12 16 15 12
4 15 2 10 -9 -5 -15 5 -21 17 -8 4 3 0 14 -8 23 -14 16 -14 19 0 34 9 9 14 20
11 24 -7 11 31 72 44 72 6 0 9 4 5 9 -6 10 45 100 57 101 4 0 10 -6 15 -12z
m-267 -24 c0 -8 -4 -12 -10 -9 -5 3 -10 10 -10 16 0 5 5 9 10 9 6 0 10 -7 10
-16z m7090 -42 c0 -11 -22 -32 -33 -32 -4 0 -5 5 -1 11 3 6 0 15 -7 20 -10 6
-6 9 14 9 15 0 27 -4 27 -8z m-557 -83 l24 -35 -23 -30 c-20 -24 -24 -26 -24
-10 0 10 8 25 18 32 11 9 13 16 6 21 -12 9 -34 47 -34 59 0 10 5 5 33 -37z
m-7023 13 c0 -5 -7 -9 -15 -9 -8 0 -12 4 -9 9 3 4 9 8 15 8 5 0 9 -4 9 -8z
m463 -22 c-3 -11 -9 -20 -14 -20 -10 0 -12 24 -2 33 13 13 21 7 16 -13z m-503
-25 c-7 -9 -15 -13 -19 -10 -3 3 1 10 9 15 21 14 24 12 10 -5z m-36 -11 c3 -8
2 -12 -4 -9 -6 3 -10 10 -10 16 0 14 7 11 14 -7z m476 -40 c0 -9 5 -12 12 -8
8 5 9 2 5 -10 -4 -10 -7 -22 -7 -27 0 -6 -4 -7 -10 -4 -5 3 -10 0 -10 -8 0 -8
-9 -25 -21 -38 -17 -19 -20 -20 -15 -5 4 10 1 25 -5 32 -8 10 -8 14 0 14 6 0
11 -4 11 -10 0 -5 4 -10 9 -10 5 0 7 9 4 20 -8 30 -25 25 -65 -20 -21 -22 -40
-35 -43 -30 -12 20 -27 10 -21 -15 5 -19 3 -23 -9 -19 -8 4 -15 1 -15 -6 0 -6
-8 -10 -17 -8 -10 1 -24 -1 -30 -5 -18 -11 -16 8 2 27 8 8 15 19 15 24 0 5 10
12 21 15 15 4 20 11 17 25 -5 17 6 20 42 13 3 -1 -5 -9 -18 -19 l-23 -18 26 1
c18 1 32 12 46 34 11 18 23 31 26 27 3 -3 13 0 21 7 12 9 16 9 19 0 9 -27 22
-11 16 19 -4 22 -3 29 5 24 7 -4 12 -14 12 -22z m30 16 c0 -5 -2 -10 -4 -10
-3 0 -8 5 -11 10 -3 6 -1 10 4 10 6 0 11 -4 11 -10z m6790 -114 c0 -3 -4 -8
-10 -11 -5 -3 -10 -1 -10 4 0 6 5 11 10 11 6 0 10 -2 10 -4z m-7102 -51 c-30
-25 -37 -40 -15 -32 7 3 13 -3 13 -12 0 -11 -8 -17 -20 -17 -12 1 -25 -10 -33
-24 -13 -25 -13 -25 -13 -2 0 12 7 25 16 29 15 6 15 8 -2 20 -15 11 -15 19 1
11 2 -2 11 6 19 17 11 15 11 22 3 28 -7 5 -3 6 10 2 12 -3 24 -1 28 5 4 6 10
8 14 5 3 -4 -6 -17 -21 -30z m22 -15 c0 -5 -2 -10 -4 -10 -3 0 -8 5 -11 10 -3
6 -1 10 4 10 6 0 11 -4 11 -10z m167 -19 c0 -11 -5 -17 -9 -15 -5 3 -6 9 -3
14 3 4 -1 11 -7 13 -8 4 -7 6 4 6 11 1 16 -6 15 -18z m493 12 c-1 -18 -18 -35
-24 -24 -4 6 -4 16 -1 21 7 12 25 13 25 3z m-650 -23 c0 -5 -2 -10 -4 -10 -3
0 -8 5 -11 10 -3 6 -1 10 4 10 6 0 11 -4 11 -10z m608 -12 c-2 -7 3 -12 11
-10 29 6 9 -46 -126 -330 -14 -29 -22 -36 -38 -31 -17 5 -18 4 -6 -11 7 -9 9
-16 3 -16 -5 0 -12 -9 -15 -20 -10 -40 -55 -9 -68 47 -17 73 -11 112 19 138
15 13 21 25 15 25 -20 0 -15 17 7 23 11 3 20 1 20 -5 0 -5 4 -7 9 -4 5 4 11 1
13 -6 3 -7 13 10 23 37 10 28 23 56 28 63 6 8 5 12 -4 12 -8 1 -4 6 9 13 12 7
19 16 16 20 -4 4 -2 7 4 7 7 0 12 -6 12 -14 0 -12 6 -12 35 -3 38 11 44 30 18
59 -15 17 -15 18 0 18 10 0 16 -6 15 -12z m-265 -11 c3 -8 -1 -14 -9 -14 -8 0
-14 6 -14 14 0 7 4 13 9 13 5 0 11 -6 14 -13z m237 -21 c0 -2 -7 -7 -16 -10
-8 -3 -12 -2 -9 4 6 10 25 14 25 6z m77 -126 c9 -30 20 -60 24 -66 5 -6 6 -14
3 -17 -7 -6 23 -88 34 -97 4 -3 13 -15 20 -27 10 -19 10 -23 -2 -23 -24 0 -63
56 -86 125 -14 41 -27 65 -36 65 -10 0 -13 6 -10 18 3 9 11 40 18 67 7 30 14
42 15 30 2 -11 11 -45 20 -75z m6193 1 c0 -6 -4 -13 -10 -16 -5 -3 -10 1 -10
9 0 9 5 16 10 16 6 0 10 -4 10 -9z m268 -36 l22 -40 -25 30 c-14 17 -25 36
-25 44 0 17 1 16 28 -34z m-6668 25 c0 -5 -7 -7 -15 -4 -8 4 -15 8 -15 10 0 2
7 4 15 4 8 0 15 -4 15 -10z m6360 -89 c0 -20 -28 -73 -34 -63 -3 6 -4 17 -1
26 3 9 7 23 10 31 5 16 25 21 25 6z m-6540 -23 c0 -7 -12 -31 -26 -53 -18 -29
-23 -33 -18 -15 4 14 11 28 16 31 5 3 8 10 7 15 -3 19 1 34 11 34 6 0 10 -6
10 -12z m6807 -10 c2 -20 -36 -60 -49 -52 -9 6 3 44 14 44 6 0 8 6 5 13 -3 7
3 13 12 14 10 1 17 -7 18 -19z m-6492 -48 c3 -5 1 -10 -4 -10 -6 0 -11 5 -11
10 0 6 2 10 4 10 3 0 8 -4 11 -10z m6495 -33 c0 -2 -12 -14 -27 -28 l-28 -24
24 28 c23 25 31 32 31 24z m-6415 -61 c-35 -183 -81 -374 -99 -418 -17 -41
-41 -54 -64 -36 -26 22 -50 88 -48 134 0 24 -2 44 -5 44 -10 0 -18 39 -9 45 4
2 10 18 13 34 5 24 17 34 66 58 62 29 89 61 68 82 -8 8 -8 11 1 11 7 0 12 7
12 15 0 9 6 12 15 9 17 -7 21 11 5 21 -5 3 -10 12 -9 18 0 9 2 9 6 0 7 -18 20
-16 27 3 3 8 2 12 -3 9 -5 -3 -13 0 -17 6 -4 8 -3 9 4 5 7 -4 12 -2 12 5 0 8
4 8 15 -1 11 -9 14 -23 10 -44z m-288 -18 c-3 -8 -6 -5 -6 6 -1 11 2 17 5 13
3 -3 4 -12 1 -19z m6400 -10 c-3 -8 -6 -5 -6 6 -1 11 2 17 5 13 3 -3 4 -12 1
-19z m239 -23 c2 -11 -2 -23 -9 -27 -8 -5 -8 -8 -1 -8 11 0 12 -28 2 -45 -3
-6 -9 -29 -13 -52 -4 -24 -12 -43 -18 -43 -5 0 -7 -3 -4 -7 4 -3 1 -13 -5 -21
-14 -16 -18 -74 -7 -82 13 -9 -14 -51 -43 -68 -29 -17 -50 -10 -30 10 7 7 12
21 12 33 0 11 8 27 19 34 13 10 18 24 16 53 -2 40 18 127 33 137 4 4 9 22 10
41 2 19 9 38 14 41 6 4 7 12 3 19 -5 8 -3 11 5 8 7 -2 15 -13 16 -23z m246 -8
c-12 -6 -26 -7 -30 -2 -4 4 -1 10 6 12 6 3 9 9 6 15 -4 5 4 4 17 -3 l24 -12
-23 -10z m-127 3 c8 -13 -24 -100 -36 -100 -5 0 -8 -5 -6 -11 1 -6 -3 -13 -9
-16 -8 -3 -9 7 -1 36 6 22 14 38 18 36 4 -3 7 1 6 8 -2 51 12 73 28 47z
m-6566 -22 c12 -16 11 -18 -3 -18 -10 0 -14 5 -11 10 3 6 1 10 -5 10 -6 0 -8
5 -5 11 4 6 8 9 9 7 1 -2 8 -11 15 -20z m-212 -25 c-3 -21 -15 -78 -26 -127
-12 -49 -18 -92 -16 -96 3 -5 2 -10 -2 -12 -5 -1 -15 -23 -23 -47 -8 -25 -22
-46 -30 -49 -10 -2 -11 -1 -4 5 17 13 25 72 12 96 -10 19 -9 20 4 10 12 -11
17 -2 31 63 16 72 16 78 -1 106 -15 25 -15 30 -2 38 8 5 11 10 7 10 -18 0 27
34 52 39 2 1 1 -16 -2 -36z m118 -13 c-3 -5 -1 -10 6 -10 7 0 10 -2 7 -5 -3
-3 -13 -2 -22 1 -14 5 -15 9 -4 15 17 11 20 11 13 -1z m6775 -10 c0 -5 10 -18
22 -29 l21 -21 -78 -75 c-61 -60 -81 -73 -91 -64 -9 7 -14 8 -14 1 0 -6 5 -12
12 -14 7 -3 1 -19 -18 -45 -86 -118 -130 -177 -141 -188 -6 -7 -13 -20 -15
-30 -2 -10 -15 -32 -30 -49 -16 -17 -28 -34 -28 -38 0 -5 -4 -8 -10 -8 -15 0
-12 21 9 60 10 19 23 51 30 72 7 20 19 39 27 42 8 3 13 10 9 15 -3 5 6 26 20
47 14 20 25 41 25 46 0 6 14 27 30 48 23 29 36 37 53 33 19 -4 20 -3 5 7 -23
14 -23 20 6 53 15 18 30 26 37 21 9 -5 10 -2 6 10 -4 9 -3 15 2 12 13 -8 98
77 93 92 -2 7 1 12 7 12 6 0 11 -4 11 -10z m-6522 -89 c-7 -9 -13 -17 -14 -19
-1 -1 -8 8 -17 21 -15 23 -14 23 14 19 25 -4 28 -7 17 -21z m-451 -78 c-3 -10
-5 -2 -5 17 0 19 2 27 5 18 2 -10 2 -26 0 -35z m472 -149 c5 -45 8 -89 6 -100
-2 -10 -6 -73 -8 -139 -3 -116 -15 -165 -39 -165 -7 0 -6 5 2 15 7 9 10 18 7
21 -9 9 -48 -16 -42 -27 4 -5 2 -9 -2 -9 -5 0 -14 14 -20 31 -10 26 -9 36 5
58 l16 26 -21 -18 c-21 -18 -22 -18 -33 2 -9 17 -8 21 4 21 11 0 8 7 -9 24
-13 13 -27 37 -30 53 -4 15 -10 35 -15 44 -10 19 5 39 29 39 11 0 10 -4 -5
-15 -22 -17 -15 -19 20 -5 40 15 30 28 -19 24 -25 -1 -45 1 -45 5 0 4 15 8 32
9 20 0 39 9 50 21 9 12 21 21 27 21 6 0 11 4 11 10 0 5 -7 7 -15 4 -12 -5 -13
-1 -3 27 6 19 16 37 22 42 8 5 7 10 -2 16 -11 6 -10 10 3 15 14 5 15 9 6 20
-13 15 1 32 18 21 5 -3 13 0 17 6 12 19 22 -11 33 -97z m6574 86 c-3 -12 -8
-19 -11 -16 -5 6 5 36 12 36 2 0 2 -9 -1 -20z m-657 -102 c-3 -13 -6 -27 -6
-31 0 -5 -4 -5 -10 -2 -17 10 -12 55 6 55 12 0 15 -6 10 -22z m244 -8 c-24
-19 -40 -25 -40 -15 0 5 51 34 60 34 3 0 -6 -8 -20 -19z m-6650 -10 c0 -5 -2
-10 -4 -10 -3 0 -8 5 -11 10 -3 6 -1 10 4 10 6 0 11 -4 11 -10z m228 -205
c-10 -115 -40 -264 -46 -226 -2 14 -10 34 -17 45 -7 12 -16 37 -20 56 -8 37
-19 60 -47 99 -10 13 -18 33 -17 45 0 15 6 9 22 -21 15 -32 27 -43 44 -43 13
0 23 6 24 13 0 6 3 24 5 40 3 19 0 29 -11 33 -12 5 -13 10 -4 20 6 8 15 11 20
8 18 -11 8 8 -13 25 -20 16 -20 20 -7 49 15 36 24 40 33 16 7 -19 28 -8 25 14
-4 46 5 30 11 -18 3 -30 3 -100 -2 -155z m6368 168 c-4 -9 -2 -19 4 -23 12 -8
-15 -107 -36 -131 -8 -8 -14 -19 -14 -22 0 -4 -9 -26 -19 -50 -11 -23 -25 -59
-31 -80 -8 -25 -22 -43 -42 -53 -16 -8 -32 -13 -34 -11 -3 2 2 22 10 43 8 22
26 73 42 114 15 41 36 88 47 103 10 15 20 33 21 40 4 23 43 85 55 87 2 0 0 -8
-3 -17z m-6226 -2 c0 -5 -7 -12 -16 -15 -24 -9 -28 -7 -14 9 14 17 30 20 30 6z
m6240 -191 c0 -5 -5 -10 -11 -10 -5 0 -7 5 -4 10 3 6 8 10 11 10 2 0 4 -4 4
-10z m187 -106 c-3 -3 -12 -4 -19 -1 -8 3 -5 6 6 6 11 1 17 -2 13 -5z m-6357
-190 c6 -40 9 -91 6 -115 -3 -24 -5 -61 -5 -81 -1 -57 -22 -46 -61 33 -45 89
-48 98 -27 80 10 -7 17 -20 17 -27 0 -8 5 -14 10 -14 6 0 10 -7 10 -15 0 -8 4
-15 10 -15 12 0 10 51 -4 68 -6 9 -6 16 0 20 6 4 10 34 9 67 -3 112 18 111 35
-1z m105 -41 c11 -21 25 -42 32 -46 7 -4 13 -15 13 -22 0 -8 4 -15 8 -15 4 0
25 -32 46 -71 30 -55 36 -73 26 -79 -11 -7 -10 -13 3 -34 9 -14 17 -32 17 -41
0 -8 7 -15 15 -15 17 0 20 -16 5 -25 -5 -3 -10 -1 -10 6 0 7 -3 9 -6 6 -4 -4
-1 -13 6 -22 7 -8 8 -15 3 -15 -5 0 -7 -18 -4 -41 10 -67 1 -199 -12 -199 -16
1 -65 39 -50 40 6 0 15 -4 18 -10 11 -18 25 -11 25 13 0 32 -20 56 -55 66 -25
8 -26 9 -7 10 12 1 22 6 22 12 0 6 7 8 16 5 12 -5 15 -2 9 11 -4 10 -9 36 -12
57 -2 22 -8 47 -13 55 -4 9 -11 35 -15 58 -3 22 -13 49 -20 60 -20 25 -20 64
0 57 24 -9 18 11 -9 32 -14 10 -23 21 -21 25 6 8 -25 72 -39 81 -6 4 -8 8 -3
8 4 0 1 16 -7 35 -20 47 -6 45 19 -2z m195 -25 c0 -19 -2 -20 -10 -8 -13 19
-13 30 0 30 6 0 10 -10 10 -22z m5350 -23 c0 -9 -7 -18 -16 -22 -9 -3 -36 -28
-61 -54 -50 -54 -63 -59 -63 -28 0 11 4 18 9 15 5 -3 23 11 40 32 55 66 61 72
76 72 8 0 15 -7 15 -15z m-158 -147 c-7 -7 -12 -8 -12 -2 0 14 12 26 19 19 2
-3 -1 -11 -7 -17z m-5502 -37 c0 -17 -4 -33 -10 -36 -6 -4 -10 5 -10 19 0 14
-4 26 -10 26 -5 0 -10 5 -10 10 0 6 9 10 20 10 15 0 20 -7 20 -29z m308 -36
c-3 -3 -9 2 -12 12 -6 14 -5 15 5 6 7 -7 10 -15 7 -18z m16 -38 c3 -13 23 -43
45 -67 33 -37 39 -41 43 -24 3 14 12 4 32 -38 15 -31 34 -62 42 -69 20 -17 19
-53 -2 -45 -14 5 -15 4 -5 -8 7 -8 20 -12 28 -9 10 4 14 2 10 -3 -3 -6 3 -17
14 -24 10 -8 19 -19 19 -25 0 -6 16 -19 35 -28 55 -26 111 -84 189 -197 112
-162 147 -237 149 -321 3 -68 2 -69 -15 -47 -10 13 -18 28 -18 35 0 6 -8 19
-17 29 -10 10 -18 20 -18 23 -1 3 -11 22 -23 41 -12 19 -22 38 -22 43 0 4 -5
7 -11 7 -21 0 -68 64 -78 106 -15 60 -111 212 -134 214 -5 0 -6 -4 -2 -9 3 -5
0 -13 -6 -16 -5 -4 -8 -13 -5 -21 3 -7 1 -16 -4 -19 -6 -4 -10 -11 -10 -16 0
-6 4 -8 8 -5 5 3 8 -5 7 -17 -1 -12 2 -36 6 -52 11 -38 17 -175 8 -169 -6 3
-17 55 -20 94 -2 26 -57 178 -74 203 -8 13 -12 27 -8 31 4 4 -2 9 -14 12 -23
6 -37 29 -28 45 3 4 -4 31 -16 58 -11 27 -18 55 -14 61 4 6 -3 19 -15 30 -12
10 -21 21 -20 24 0 4 -17 45 -40 93 -22 47 -40 90 -40 94 0 19 18 8 24 -14z
m-190 -26 c-6 -6 -24 19 -24 34 1 6 7 1 15 -9 8 -11 12 -22 9 -25z m5597 2
c13 -16 12 -17 -3 -4 -10 7 -18 15 -18 17 0 8 8 3 21 -13z m-5741 -3 c0 -5 -2
-10 -4 -10 -3 0 -8 5 -11 10 -3 6 -1 10 4 10 6 0 11 -4 11 -10z m5385 -32 c-1
-18 -11 -49 -24 -68 l-22 -35 7 45 c8 55 21 90 32 90 5 0 8 -15 7 -32z m389
-30 c-3 -5 -11 -4 -18 1 -7 6 -17 7 -21 3 -5 -4 -5 -1 -1 6 4 6 2 12 -3 12 -6
0 -11 5 -11 11 0 5 13 2 29 -7 17 -10 28 -22 25 -26z m-5889 1 c11 -17 -1 -21
-15 -4 -8 9 -8 15 -2 15 6 0 14 -5 17 -11z m300 1 c3 -5 1 -10 -4 -10 -6 0
-11 5 -11 10 0 6 2 10 4 10 3 0 8 -4 11 -10z m453 -50 c2 -18 -1 -37 -7 -43
-8 -8 -11 -7 -11 3 0 7 -7 22 -16 32 -14 14 -15 20 -4 33 19 23 35 13 38 -25z
m-414 -19 c-6 -6 -24 19 -24 34 1 6 7 1 15 -9 8 -11 12 -22 9 -25z m4911 -29
c-2 -31 -13 -83 -25 -114 -23 -61 -85 -162 -118 -191 -20 -18 -21 -18 -31 0
-9 14 -9 12 -5 -14 5 -26 3 -33 -9 -33 -9 0 -19 -5 -23 -12 -5 -8 3 -10 27 -6
33 6 35 4 47 -30 26 -74 26 -71 1 -65 -15 4 -20 3 -15 -5 4 -7 2 -12 -3 -12
-6 0 -11 4 -11 8 0 5 -16 16 -35 25 -41 20 -49 21 -40 7 9 -15 -45 -24 -58
-10 -10 10 -6 11 18 6 27 -6 28 -5 10 6 -11 6 -38 11 -60 10 -31 -1 -36 0 -20
8 11 5 29 9 40 10 11 0 34 7 50 16 l30 14 -47 -5 c-27 -2 -48 -2 -48 2 0 4 10
23 23 42 12 20 27 45 34 56 6 12 21 20 36 20 14 -1 23 3 21 7 -10 15 9 8 23
-9 13 -16 14 -14 9 20 -3 27 -1 40 9 44 8 3 13 9 10 13 -3 5 3 6 14 3 11 -3
21 2 25 13 6 15 9 16 16 5 6 -11 13 -9 33 11 29 29 44 76 54 161 8 74 23 74
18 -1z m-4965 -46 c0 -3 -4 -8 -10 -11 -5 -3 -10 -1 -10 4 0 6 5 11 10 11 6 0
10 -2 10 -4z m5526 -73 c-10 -11 -36 -12 -36 -2 0 5 10 9 22 9 12 0 18 -3 14
-7z m-5266 -93 c0 -5 -2 -10 -4 -10 -3 0 -8 5 -11 10 -3 6 -1 10 4 10 6 0 11
-4 11 -10z m574 -66 c9 -8 16 -31 16 -50 0 -32 -2 -35 -22 -29 -35 11 -41 21
-34 59 8 40 17 44 40 20z m4449 6 c7 -1 1 -10 -12 -21 -26 -21 -41 -18 -22 5
7 8 8 16 4 18 -4 3 -2 3 5 1 8 -1 19 -3 25 -3z m-4964 -41 c26 -46 22 -65 -5
-22 -10 15 -27 36 -38 45 l-21 18 21 0 c14 0 28 -13 43 -41z m787 -54 c10 -8
14 -15 7 -15 -19 0 -43 11 -43 21 0 13 14 11 36 -6z m94 -40 c0 -2 -13 1 -30
6 -16 6 -30 15 -30 20 0 5 14 3 30 -6 17 -9 30 -17 30 -20z m-931 -49 c-3 -3
-11 5 -18 17 -13 21 -12 21 5 5 10 -10 16 -20 13 -22z m4686 -16 c17 -7 15 -9
-12 -9 -17 -1 -35 4 -38 9 -7 12 22 12 50 0z m-595 -10 c0 -5 -2 -10 -4 -10
-3 0 -8 5 -11 10 -3 6 -1 10 4 10 6 0 11 -4 11 -10z m660 -22 c0 -12 -6 -9
-26 13 -19 22 -19 22 4 8 12 -8 22 -17 22 -21z m-4450 -38 c13 -11 18 -20 11
-20 -13 0 -41 24 -41 34 0 10 6 7 30 -14z m1570 1 c0 -5 6 -9 13 -8 32 1 48
-4 42 -13 -8 -13 -75 -13 -95 0 -13 9 -13 11 0 20 19 12 40 13 40 1z m2516
-16 c4 -8 10 -15 15 -15 4 0 6 6 4 13 -4 8 9 13 42 14 46 3 47 2 23 -11 l-25
-14 28 1 c15 1 27 5 27 10 0 4 8 7 18 6 10 0 12 -3 5 -6 -10 -3 -9 -8 2 -20
22 -22 18 -40 -10 -45 -13 -3 -22 -1 -19 3 3 5 2 9 -1 9 -8 0 -35 -27 -35 -34
0 -10 49 -6 55 4 3 6 11 10 17 10 14 0 -10 -28 -36 -42 -11 -6 -39 -13 -61
-14 -22 -2 -34 -1 -27 2 9 4 7 13 -9 35 -12 17 -24 27 -27 24 -4 -3 0 -10 8
-15 11 -7 8 -10 -12 -10 -17 0 -26 5 -24 13 1 6 1 9 -1 5 -7 -13 -51 -9 -56 5
-4 8 -8 8 -14 2 -13 -16 -73 -14 -73 2 0 9 -5 11 -12 6 -16 -9 -120 -4 -131 7
-5 4 20 10 55 14 93 10 167 27 179 43 16 18 88 17 95 -2z m-3531 -14 c22 -5
52 -12 68 -16 21 -6 27 -4 27 9 0 21 19 20 42 -1 25 -22 24 -53 -2 -53 -28 0
-25 -12 15 -54 19 -21 35 -43 35 -49 0 -7 10 -18 21 -26 17 -10 19 -15 9 -21
-9 -6 -34 11 -79 51 -35 33 -92 73 -126 89 -64 31 -170 60 -218 60 -16 0 -26
4 -22 10 7 12 173 13 230 1z m-488 -47 c-3 -3 -12 -4 -19 -1 -8 3 -5 6 6 6 11
1 17 -2 13 -5z m4261 -16 c-2 -6 -24 -17 -49 -24 -53 -16 -49 -16 -49 -5 0 9
66 40 88 40 8 1 12 -4 10 -11z m-2868 -55 c-1 -11 -40 37 -40 49 0 6 9 -1 20
-15 11 -14 20 -29 20 -34z m-1174 32 c81 -33 120 -57 142 -88 12 -18 36 -50
52 -72 56 -75 53 -80 -11 -18 -84 81 -111 102 -183 139 -88 44 -88 74 0 39z
m-136 -51 c0 -2 -9 0 -20 6 -11 6 -20 13 -20 16 0 2 9 0 20 -6 11 -6 20 -13
20 -16z m1090 16 c0 -5 -2 -10 -4 -10 -3 0 -8 5 -11 10 -3 6 -1 10 4 10 6 0
11 -4 11 -10z m1951 -17 c-20 -39 -311 -323 -391 -383 -90 -68 -242 -160 -265
-160 -7 0 -15 -4 -17 -8 -5 -13 -128 -60 -216 -83 -109 -28 -202 -13 -202 32
0 17 4 19 23 12 12 -4 69 -8 127 -8 95 0 110 3 157 27 63 34 134 59 145 52 4
-3 8 0 8 5 0 6 5 11 11 11 19 0 157 92 257 171 54 42 158 138 232 213 74 75
136 136 138 136 1 0 -2 -8 -7 -17z m-1971 -14 c0 -12 -44 -78 -52 -79 -5 0 -8
12 -8 26 0 14 4 23 10 19 6 -3 10 -1 10 4 0 6 -7 11 -15 11 -8 0 -15 5 -15 11
0 6 9 9 20 6 11 -3 20 -2 20 2 0 4 7 8 15 8 8 0 15 -4 15 -8z m2770 -25 c8 -8
10 -14 4 -14 -6 0 -14 3 -18 7 -3 4 -16 8 -29 10 -12 2 -26 8 -31 13 -16 16
57 0 74 -16z m-60 -19 c21 -11 30 -23 30 -40 0 -14 -4 -25 -10 -25 -5 0 -10 6
-10 14 0 8 -30 22 -75 35 -41 13 -75 25 -75 27 0 11 115 2 140 -11z m316 -17
c3 -4 12 -4 20 -1 8 3 14 -1 14 -10 0 -10 -8 -13 -25 -9 -15 2 -25 0 -25 -7 0
-6 8 -11 18 -11 9 0 27 -3 39 -6 18 -5 25 -1 32 19 8 20 15 24 33 19 12 -3 17
-7 10 -10 -27 -9 -9 -17 43 -19 71 -2 172 -40 179 -67 3 -11 4 -21 3 -22 -1
-2 -27 3 -57 11 -72 18 -191 35 -315 47 -113 10 -109 10 -187 2 -60 -6 -68 -2
-44 21 14 14 23 14 77 0 16 -4 30 -2 33 4 4 6 16 11 28 11 14 0 18 5 14 16 -3
8 -2 13 2 10 5 -3 22 -1 38 3 31 9 60 9 70 -1z m-2451 -29 c20 -20 20 -20 -45
-17 -51 2 -65 7 -68 20 -6 33 78 31 113 -3z m2515 15 c0 -8 -4 -12 -10 -9 -5
3 -10 10 -10 16 0 5 5 9 10 9 6 0 10 -7 10 -16z m-2795 -3 l30 -7 -34 -8 c-30
-7 -32 -10 -17 -18 21 -12 71 6 61 22 -3 6 4 10 17 10 15 0 40 -19 74 -57 49
-55 54 -58 96 -57 25 0 76 9 114 19 68 17 70 17 109 -3 22 -11 60 -38 85 -60
26 -23 48 -36 51 -30 4 7 9 6 13 -1 4 -6 2 -11 -3 -11 -6 0 -11 -4 -11 -10 0
-11 49 -6 175 15 121 21 158 24 180 16 17 -7 15 -9 -15 -15 -74 -16 -110 -30
-110 -43 0 -8 -4 -11 -10 -8 -16 10 -12 -5 6 -22 9 -9 19 -12 22 -7 9 12 113
54 132 53 17 0 -78 -48 -97 -49 -6 0 -19 -8 -28 -17 -16 -16 -18 -16 -27 0
-11 20 -34 22 -41 5 -3 -8 -9 -2 -15 14 -6 14 -16 29 -23 34 -8 5 -11 2 -6 -8
3 -9 0 -21 -6 -28 -9 -10 -8 -12 6 -7 11 4 17 1 17 -8 0 -8 12 -21 28 -29 51
-28 12 -16 -49 14 -54 28 -88 32 -74 10 3 -5 1 -11 -5 -15 -5 -3 -16 9 -23 28
-8 18 -21 34 -28 35 -8 1 -34 5 -58 10 -29 7 -59 6 -89 -2 -40 -10 -49 -17
-70 -58 -26 -51 -24 -72 13 -112 21 -23 32 -26 91 -26 l66 0 -14 -22 c-19 -30
-94 -68 -133 -68 -46 1 -112 35 -128 67 -19 36 -49 171 -42 184 4 5 -1 9 -10
9 -9 0 -14 4 -11 9 13 21 -149 160 -234 200 -30 14 -58 26 -62 26 -15 0 -20
15 -5 15 10 0 17 5 17 10 0 11 29 11 75 1z m-711 -17 c9 -8 13 -21 9 -27 -4
-6 0 -8 9 -4 11 4 17 -2 20 -18 l5 -24 -27 22 c-15 12 -34 32 -44 45 -14 18
-14 22 -2 22 8 0 22 -7 30 -16z m2761 -45 c106 -17 215 -42 215 -49 0 -10 -69
-38 -110 -45 -20 -3 -78 3 -134 15 -54 11 -128 20 -165 20 -36 0 -103 3 -147
6 -77 6 -81 8 -66 25 11 13 24 16 46 13 23 -4 27 -3 16 5 -13 9 -13 11 0 15
48 16 229 14 345 -5z m-2665 -59 c0 -5 -2 -10 -4 -10 -3 0 -8 5 -11 10 -3 6
-1 10 4 10 6 0 11 -4 11 -10z m1690 -4 c0 -3 -4 -8 -10 -11 -5 -3 -10 -1 -10
4 0 6 5 11 10 11 6 0 10 -2 10 -4z m14 -28 c-7 -11 -42 -10 -48 1 -3 5 7 8 23
7 16 0 27 -4 25 -8z m914 -30 c73 -12 72 -34 -1 -31 -23 1 -117 3 -209 4 -92
2 -165 5 -162 8 3 3 36 14 72 23 72 19 177 17 300 -4z m-2434 -42 c-3 -9 -10
-13 -15 -10 -5 3 -3 11 4 19 15 16 19 13 11 -9z m-4 -31 c3 -1 21 -11 40 -23
48 -30 16 -27 -40 3 -25 14 -55 30 -67 36 -13 7 -23 16 -23 21 0 5 19 -2 43
-14 23 -12 44 -23 47 -23z m1450 11 c0 -3 -4 -8 -10 -11 -5 -3 -10 -1 -10 4 0
6 5 11 10 11 6 0 10 -2 10 -4z m1340 -6 c0 -5 -4 -10 -10 -10 -5 0 -10 5 -10
10 0 6 5 10 10 10 6 0 10 -4 10 -10z m35 -28 c-3 -3 -11 0 -18 7 -9 10 -8 11
6 5 10 -3 15 -9 12 -12z m78 -9 c-7 -2 -21 -2 -30 0 -10 3 -4 5 12 5 17 0 24
-2 18 -5z m-2788 -23 c13 -6 15 -9 5 -9 -8 0 -22 4 -30 9 -18 12 -2 12 25 0z
m1360 0 c-3 -5 -11 -10 -16 -10 -6 0 -7 5 -4 10 3 6 11 10 16 10 6 0 7 -4 4
-10z m660 -9 c-16 -15 -211 -91 -234 -91 -12 0 -21 6 -21 16 0 28 47 59 107
70 74 15 160 17 148 5z m-675 -25 c0 -2 -7 -7 -16 -10 -8 -3 -12 -2 -9 4 6 10
25 14 25 6z m-1642 -103 c28 -14 50 -28 48 -31 -6 -5 -155 73 -186 99 -14 11
-1 7 30 -11 30 -17 79 -43 108 -57z m753 -103 c25 0 24 -16 0 -30 -36 -19 -59
-11 -82 28 -70 118 -70 113 0 55 34 -29 71 -53 82 -53z m1759 96 c0 -2 -7 -9
-15 -16 -13 -11 -14 -10 -9 4 5 14 24 23 24 12z m-1663 -22 c-3 -3 -12 -4 -19
-1 -8 3 -5 6 6 6 11 1 17 -2 13 -5z m-17 -47 c0 -5 -4 -5 -10 -2 -5 3 -10 14
-10 23 0 15 2 15 10 2 5 -8 10 -19 10 -23z m1624 18 c-10 -8 -25 -15 -32 -15
-7 0 -10 -4 -7 -10 3 -5 4 -10 1 -10 -19 0 -12 22 11 34 36 20 52 20 27 1z
m-273 -40 c0 -14 -37 -18 -70 -9 -25 7 -24 8 14 14 48 8 57 8 56 -5z m207 -13
c-21 -27 -59 -60 -116 -99 -38 -27 -51 -41 -47 -54 5 -15 1 -16 -32 -8 -42 9
-205 68 -213 76 -11 12 112 -6 127 -18 12 -10 15 -10 9 -1 -9 15 6 16 21 1 17
-17 83 -20 83 -3 0 8 3 14 8 14 4 0 29 20 56 45 27 25 59 48 72 51 13 3 24 10
24 16 0 5 5 6 10 3 8 -5 7 -12 -2 -23z m619 -88 c-3 -3 -12 -4 -19 -1 -8 3 -5
6 6 6 11 1 17 -2 13 -5z m-2332 -44 c3 -5 1 -10 -4 -10 -6 0 -11 5 -11 10 0 6
2 10 4 10 3 0 8 -4 11 -10z m580 -17 l18 -26 -32 22 c-34 25 -38 31 -17 31 7
0 22 -12 31 -27z m1367 -19 c60 -17 82 -38 26 -24 -37 9 -108 39 -94 40 5 0
36 -7 68 -16z m458 6 c-8 -5 -19 -10 -25 -10 -5 0 -3 5 5 10 8 5 20 10 25 10
6 0 3 -5 -5 -10z m-1196 -22 c-3 -4 1 -5 9 -2 8 3 18 1 22 -5 3 -6 -1 -14 -9
-17 -24 -9 -19 -20 19 -43 46 -27 45 -44 -2 -25 -20 9 -100 34 -177 56 -77 21
-142 41 -144 43 -2 2 61 3 141 2 80 -1 143 -5 141 -9z m789 -84 c31 -10 57
-21 57 -26 0 -8 -129 37 -139 49 -4 3 1 4 9 1 8 -3 41 -14 73 -24z m-727 -100
c93 -29 109 -43 23 -20 -140 39 -162 45 -168 52 -9 11 51 -3 145 -32z m-1866
5 c0 -11 -4 -17 -10 -14 -5 3 -10 13 -10 21 0 8 5 14 10 14 6 0 10 -9 10 -21z
m50 -19 c0 -5 -7 -7 -15 -4 -8 4 -15 8 -15 10 0 2 7 4 15 4 8 0 15 -4 15 -10z
m-106 -15 c-4 -8 -8 -15 -10 -15 -2 0 -4 7 -4 15 0 8 4 15 10 15 5 0 7 -7 4
-15z m1889 -13 c-8 -5 16 -17 60 -32 39 -14 64 -26 55 -28 -9 -2 -44 6 -79 17
-34 12 -68 21 -76 21 -22 0 -15 18 10 23 37 7 43 7 30 -1z"/>
<path d="M2811 7887 c-17 -33 -37 -35 -44 -5 -4 12 -9 20 -12 16 -8 -8 16 -58
25 -53 4 2 6 -7 4 -21 -4 -38 17 -24 33 21 17 50 13 78 -6 42z"/>
<path d="M1880 6099 c-7 -11 -9 -23 -6 -27 3 -3 6 0 6 6 0 7 7 12 15 12 8 0
15 7 15 15 0 22 -17 18 -30 -6z"/>
<path d="M1970 6021 c0 -6 4 -12 8 -15 5 -3 9 1 9 9 0 8 -4 15 -9 15 -4 0 -8
-4 -8 -9z"/>
<path d="M7481 3784 c0 -11 3 -14 6 -6 3 7 2 16 -1 19 -3 4 -6 -2 -5 -13z"/>
<path d="M7355 3459 c-4 -6 -5 -12 -2 -15 2 -3 7 2 10 11 7 17 1 20 -8 4z"/>
<path d="M2246 2667 c3 -10 9 -15 12 -12 3 3 0 11 -7 18 -10 9 -11 8 -5 -6z"/>
<path d="M2397 2483 c-4 -3 -7 -12 -7 -20 0 -17 26 -17 33 1 8 21 -11 35 -26
19z"/>
<path d="M3090 2310 c0 -5 7 -10 16 -10 8 0 13 -4 9 -9 -3 -6 3 -15 14 -21 17
-9 19 -8 15 5 -4 9 -1 15 7 15 20 0 -23 29 -43 30 -10 0 -18 -4 -18 -10z"/>
<path d="M3398 2252 c25 -20 124 -59 107 -43 -6 5 -37 21 -70 35 -44 19 -54
21 -37 8z"/>
<path d="M3604 2195 c-10 -8 -14 -15 -7 -15 19 0 43 11 43 21 0 13 -14 11 -36
-6z"/>
<path d="M4080 2124 c0 -8 5 -12 10 -9 6 4 8 11 5 16 -9 14 -15 11 -15 -7z"/>
<path d="M4810 1507 c14 -8 29 -10 35 -5 5 4 14 8 20 8 5 0 4 -4 -4 -9 -13 -8
19 -9 63 -2 28 4 -12 14 -71 18 -62 3 -66 2 -43 -10z"/>
<path d="M2205 7170 c4 -6 11 -8 16 -5 14 9 11 15 -7 15 -8 0 -12 -5 -9 -10z"/>
<path d="M1430 6746 c0 -2 7 -6 15 -10 8 -3 15 -1 15 4 0 6 -7 10 -15 10 -8 0
-15 -2 -15 -4z"/>
<path d="M1468 6703 c7 -3 16 -2 19 1 4 3 -2 6 -13 5 -11 0 -14 -3 -6 -6z"/>
<path d="M1370 6646 c0 -2 7 -7 16 -10 8 -3 12 -2 9 4 -6 10 -25 14 -25 6z"/>
<path d="M1360 6530 c-1 -3 -3 -16 -6 -30 -3 -21 -2 -22 7 -7 6 10 8 23 5 30
-2 7 -5 10 -6 7z"/>
<path d="M1385 6410 c3 -5 11 -10 16 -10 6 0 7 5 4 10 -3 6 -11 10 -16 10 -6
0 -7 -4 -4 -10z"/>
<path d="M1410 6376 c0 -2 7 -6 15 -10 8 -3 15 -1 15 4 0 6 -7 10 -15 10 -8 0
-15 -2 -15 -4z"/>
<path d="M2420 6870 c-12 -8 -11 -10 8 -10 12 0 22 5 22 10 0 13 -11 13 -30 0z"/>
<path d="M2090 6499 c0 -5 5 -7 10 -4 6 3 10 8 10 11 0 2 -4 4 -10 4 -5 0 -10
-5 -10 -11z"/>
<path d="M2111 6444 c0 -11 3 -14 6 -6 3 7 2 16 -1 19 -3 4 -6 -2 -5 -13z"/>
<path d="M2023 6433 c-7 -2 -13 -11 -13 -18 0 -20 70 -65 100 -64 21 0 18 3
-15 15 -48 18 -56 25 -58 53 -1 11 -1 21 -2 20 0 0 -6 -3 -12 -6z"/>
<path d="M2155 6360 c-3 -5 -1 -10 4 -10 6 0 11 5 11 10 0 6 -2 10 -4 10 -3 0
-8 -4 -11 -10z"/>
<path d="M2105 6300 c3 -5 8 -10 11 -10 2 0 4 5 4 10 0 6 -5 10 -11 10 -5 0
-7 -4 -4 -10z"/>
<path d="M1628 6013 c7 -3 16 -2 19 1 4 3 -2 6 -13 5 -11 0 -14 -3 -6 -6z"/>
<path d="M1640 5969 c0 -5 5 -7 10 -4 6 3 10 8 10 11 0 2 -4 4 -10 4 -5 0 -10
-5 -10 -11z"/>
<path d="M7743 5967 c1 -15 5 -27 10 -27 10 0 9 22 -2 39 -7 10 -9 7 -8 -12z"/>
<path d="M7868 5483 c-23 -6 -23 -20 1 -33 33 -17 53 -12 49 12 -3 23 -19 30
-50 21z m42 -24 c0 -6 -4 -7 -10 -4 -5 3 -10 11 -10 16 0 6 5 7 10 4 6 -3 10
-11 10 -16z"/>
<path d="M8009 5403 c-13 -16 -12 -17 4 -4 9 7 17 15 17 17 0 8 -8 3 -21 -13z"/>
<path d="M7960 5260 c0 -5 5 -10 10 -10 6 0 10 5 10 10 0 6 -4 10 -10 10 -5 0
-10 -4 -10 -10z"/>
<path d="M8070 5240 c0 -5 5 -10 11 -10 5 0 7 5 4 10 -3 6 -8 10 -11 10 -2 0
-4 -4 -4 -10z"/>
<path d="M7925 4960 c3 -5 8 -10 11 -10 2 0 4 5 4 10 0 6 -5 10 -11 10 -5 0
-7 -4 -4 -10z"/>
<path d="M7935 4930 c3 -5 11 -10 16 -10 6 0 7 5 4 10 -3 6 -11 10 -16 10 -6
0 -7 -4 -4 -10z"/>
<path d="M660 5799 c0 -5 5 -7 10 -4 6 3 10 8 10 11 0 2 -4 4 -10 4 -5 0 -10
-5 -10 -11z"/>
<path d="M1328 4653 c7 -3 16 -2 19 1 4 3 -2 6 -13 5 -11 0 -14 -3 -6 -6z"/>
<path d="M865 4560 c3 -5 8 -10 11 -10 2 0 4 5 4 10 0 6 -5 10 -11 10 -5 0 -7
-4 -4 -10z"/>
<path d="M1262 4223 c2 -9 8 -18 15 -20 7 -3 9 3 6 16 -6 25 -26 28 -21 4z"/>
<path d="M1420 3991 c0 -6 5 -13 10 -16 6 -3 10 1 10 9 0 9 -4 16 -10 16 -5 0
-10 -4 -10 -9z"/>
<path d="M1285 3850 c-18 -19 -17 -20 2 -20 12 0 23 8 26 20 3 11 2 20 -2 20
-5 0 -16 -9 -26 -20z"/>
<path d="M1287 3790 c-3 -11 -3 -20 -1 -20 2 0 8 9 14 20 6 11 7 20 2 20 -6 0
-12 -9 -15 -20z"/>
<path d="M1460 3510 c0 -5 5 -10 11 -10 5 0 7 5 4 10 -3 6 -8 10 -11 10 -2 0
-4 -4 -4 -10z"/>
<path d="M1475 3374 c-16 -13 -25 -24 -20 -24 14 1 61 38 55 43 -3 3 -18 -6
-35 -19z"/>
<path d="M1490 3320 c-18 -12 -2 -12 25 0 13 6 15 9 5 9 -8 0 -22 -4 -30 -9z"/>
<path d="M1505 3270 c-8 -13 5 -13 25 0 13 8 13 10 -2 10 -9 0 -20 -4 -23 -10z"/>
<path d="M1227 3293 c-13 -3 -16 -10 -11 -26 9 -29 33 -77 39 -77 3 0 5 25 5
55 0 30 -3 54 -7 54 -5 -1 -16 -3 -26 -6z"/>
<path d="M2025 2310 c-3 -5 -2 -10 4 -10 6 0 8 -7 5 -15 -4 -10 0 -15 14 -15
18 0 19 3 9 25 -13 27 -22 31 -32 15z"/>
<path d="M2876 1865 c-9 -26 -7 -32 5 -12 6 10 9 21 6 23 -2 3 -7 -2 -11 -11z"/>
<path d="M4500 1476 c0 -2 7 -6 15 -10 8 -3 15 -1 15 4 0 6 -7 10 -15 10 -8 0
-15 -2 -15 -4z"/>
<path d="M4430 8460 c0 -5 5 -10 11 -10 5 0 7 5 4 10 -3 6 -8 10 -11 10 -2 0
-4 -4 -4 -10z"/>
<path d="M4500 8454 c0 -14 27 -50 33 -44 3 3 -3 16 -13 30 -11 14 -20 20 -20
14z"/>
<path d="M4455 8440 c-3 -5 -2 -10 4 -10 5 0 13 5 16 10 3 6 2 10 -4 10 -5 0
-13 -4 -16 -10z"/>
<path d="M4062 8398 c3 -16 1 -28 -3 -28 -5 0 -9 -4 -9 -10 0 -5 6 -9 12 -7 7
1 21 -15 31 -35 18 -37 46 -55 32 -20 -4 9 -10 26 -13 37 -3 10 -16 35 -30 55
-24 34 -24 34 -20 8z"/>
<path d="M4124 8358 c-10 -15 5 -22 20 -9 11 9 15 6 20 -15 5 -20 12 -25 26
-21 11 3 18 2 15 -3 -3 -4 6 -7 19 -6 23 1 23 2 9 18 -10 11 -24 16 -38 12
-16 -4 -24 0 -27 14 -5 19 -34 26 -44 10z"/>
<path d="M5685 8360 c-4 -6 5 -10 19 -10 14 0 26 5 26 10 0 6 -9 10 -19 10
-11 0 -23 -4 -26 -10z"/>
<path d="M6213 8285 c0 -13 3 -22 8 -19 5 3 9 14 9 25 0 10 -4 19 -9 19 -5 0
-8 -11 -8 -25z"/>
<path d="M3632 8278 c-17 -17 -15 -27 6 -24 9 2 18 10 20 19 4 20 -9 22 -26 5z"/>
<path d="M4675 8270 c-3 -5 -1 -10 4 -10 6 0 11 5 11 10 0 6 -2 10 -4 10 -3 0
-8 -4 -11 -10z"/>
<path d="M4175 8260 c-3 -5 -1 -10 4 -10 6 0 11 5 11 10 0 6 -2 10 -4 10 -3 0
-8 -4 -11 -10z"/>
<path d="M4140 8233 c1 -5 12 -21 26 -38 27 -31 28 -28 5 18 -13 25 -31 37
-31 20z"/>
<path d="M5191 8161 c-6 -11 -7 -22 -2 -25 5 -3 11 4 14 16 8 30 1 35 -12 9z"/>
<path d="M4940 8116 c0 -2 8 -10 18 -17 15 -13 16 -12 3 4 -13 16 -21 21 -21
13z"/>
<path d="M6027 8058 c-38 -79 -57 -129 -57 -147 1 -9 13 16 29 54 16 39 36 87
45 108 24 56 12 45 -17 -15z"/>
<path d="M6820 8063 c0 -5 27 -38 60 -73 59 -63 60 -64 41 -84 -22 -26 -51
-98 -51 -129 1 -18 3 -16 15 11 8 19 33 54 55 79 l39 45 -54 50 c-30 27 -66
63 -80 80 -14 16 -25 26 -25 21z"/>
<path d="M7396 8007 c-4 -9 -8 -23 -10 -31 -3 -8 7 -63 21 -123 29 -116 41
-117 24 -3 -6 38 -11 86 -11 107 0 46 -16 77 -24 50z"/>
<path d="M6065 8000 c-3 -5 -1 -10 4 -10 6 0 11 5 11 10 0 6 -2 10 -4 10 -3 0
-8 -4 -11 -10z"/>
<path d="M6372 7985 c-11 -12 -10 -15 3 -15 8 0 15 7 15 15 0 18 -2 18 -18 0z"/>
<path d="M6400 7969 c0 -5 5 -7 10 -4 6 3 10 8 10 11 0 2 -4 4 -10 4 -5 0 -10
-5 -10 -11z"/>
<path d="M7806 7819 c-11 -25 11 -134 41 -212 14 -37 28 -65 30 -63 3 2 -7 55
-22 118 -44 184 -41 175 -49 157z"/>
<path d="M6417 7789 c7 -7 15 -10 18 -7 3 3 -2 9 -12 12 -14 6 -15 5 -6 -5z"/>
<path d="M6486 7788 c3 -5 10 -6 15 -3 13 9 11 12 -6 12 -8 0 -12 -4 -9 -9z"/>
<path d="M7291 7784 c0 -11 3 -14 6 -6 3 7 2 16 -1 19 -3 4 -6 -2 -5 -13z"/>
<path d="M1932 7771 c-11 -6 -10 -10 3 -15 10 -3 23 -2 30 4 9 8 14 7 17 -2 3
-8 7 -6 11 5 5 13 1 17 -21 17 -15 0 -33 -4 -40 -9z"/>
<path d="M6440 7766 c0 -2 7 -9 15 -16 9 -7 15 -8 15 -2 0 5 -7 12 -15 16 -8
3 -15 4 -15 2z"/>
<path d="M2095 7730 c-3 -6 1 -7 9 -4 18 7 21 14 7 14 -6 0 -13 -4 -16 -10z"/>
<path d="M7291 7663 c-1 -33 15 -43 35 -23 5 5 24 6 46 1 21 -5 36 -5 33 -1
-3 5 -27 11 -54 15 -34 5 -51 12 -54 23 -3 10 -5 2 -6 -15z"/>
<path d="M7435 7500 c-19 -8 -19 -9 3 -9 12 -1 22 -5 22 -10 0 -5 8 -12 17
-15 16 -6 16 -6 0 12 -9 10 -14 22 -10 25 9 9 -7 8 -32 -3z"/>
<path d="M7890 7505 c0 -5 5 -17 10 -25 5 -8 10 -10 10 -5 0 6 -5 17 -10 25
-5 8 -10 11 -10 5z"/>
<path d="M8124 7498 c-14 -22 -13 -58 1 -58 11 0 14 -25 14 -117 1 -66 7 -138
14 -163 12 -43 13 -40 10 60 -5 176 -14 290 -23 290 -5 0 -12 -5 -16 -12z"/>
<path d="M1424 7481 c3 -5 15 -11 26 -14 17 -4 19 -3 9 9 -12 15 -44 20 -35 5z"/>
<path d="M7500 7430 c0 -5 5 -10 10 -10 6 0 10 5 10 10 0 6 -4 10 -10 10 -5 0
-10 -4 -10 -10z"/>
<path d="M7782 7392 c-10 -3 -7 -9 8 -19 12 -8 24 -12 27 -9 4 3 1 6 -5 6 -6
0 -12 6 -14 13 -2 8 -9 12 -16 9z"/>
<path d="M1290 7350 c-8 -5 -11 -12 -7 -16 4 -4 15 0 24 9 18 18 8 23 -17 7z"/>
<path d="M1330 7316 c0 -9 5 -16 10 -16 6 0 10 4 10 9 0 6 -4 13 -10 16 -5 3
-10 -1 -10 -9z"/>
<path d="M1470 7220 c0 -11 4 -20 9 -20 5 0 7 9 4 20 -3 11 -7 20 -9 20 -2 0
-4 -9 -4 -20z"/>
<path d="M1485 7180 c-3 -5 -1 -10 4 -10 6 0 11 5 11 10 0 6 -2 10 -4 10 -3 0
-8 -4 -11 -10z"/>
<path d="M1490 7150 c0 -5 5 -10 10 -10 6 0 10 5 10 10 0 6 -4 10 -10 10 -5 0
-10 -4 -10 -10z"/>
<path d="M8426 7154 c9 -4 9 -11 0 -29 -6 -14 -14 -25 -18 -25 -4 0 -19 -39
-34 -87 -16 -53 -36 -97 -50 -110 -19 -17 -22 -29 -18 -60 2 -21 2 -33 -2 -26
-7 15 -34 6 -55 -19 -19 -21 -30 -24 -23 -4 4 11 -1 11 -30 2 -38 -12 -39 -14
-10 -19 30 -4 48 -18 35 -27 -15 -8 24 -60 45 -60 22 0 17 -16 -13 -40 -32
-25 -12 -16 31 13 27 19 29 19 38 3 9 -16 11 -16 25 4 12 16 12 27 4 52 -19
53 -13 91 43 259 30 90 52 167 49 172 -2 4 -10 7 -16 6 -9 0 -9 -2 -1 -5z
m-151 -384 c3 -5 1 -10 -4 -10 -6 0 -11 5 -11 10 0 6 2 10 4 10 3 0 8 -4 11
-10z"/>
<path d="M8104 6974 c-18 -38 -24 -65 -20 -85 8 -40 35 -79 54 -79 13 0 11 4
-6 16 -31 21 -30 85 3 145 22 43 24 59 4 59 -5 0 -20 -25 -35 -56z"/>
<path d="M8232 6959 c-23 -55 -46 -138 -40 -144 11 -11 38 23 43 55 3 19 11
55 16 79 13 59 4 64 -19 10z"/>
<path d="M8437 6227 c-9 -26 -14 -47 -12 -47 8 0 36 73 32 84 -2 6 -11 -11
-20 -37z"/>
<path d="M8255 3590 c3 -5 8 -10 11 -10 2 0 4 5 4 10 0 6 -5 10 -11 10 -5 0
-7 -4 -4 -10z"/>
<path d="M6987 2393 c3 -10 10 -24 16 -30 10 -13 0 -17 -34 -14 -9 1 -22 -5
-29 -14 -11 -14 -9 -15 21 -11 63 9 99 18 99 27 0 5 -7 9 -16 9 -18 0 -44 23
-44 39 0 6 -4 11 -10 11 -5 0 -7 -8 -3 -17z"/>
<path d="M7044 2391 c4 -5 0 -12 -6 -14 -7 -3 2 -6 20 -6 34 -1 43 13 16 23
-23 9 -36 7 -30 -3z"/>
<path d="M6955 2380 c-3 -5 -4 -10 -1 -10 2 0 12 -3 20 -6 12 -5 15 -2 10 10
-7 18 -20 21 -29 6z"/>
<path d="M6804 2359 c-3 -6 -1 -16 5 -22 8 -8 11 -5 11 11 0 24 -5 28 -16 11z"/>
<path d="M6740 2326 c0 -8 -6 -17 -12 -20 -7 -3 5 -4 26 -3 22 1 41 8 44 15 2
6 -1 12 -8 12 -6 0 -8 -4 -5 -10 3 -5 1 -10 -4 -10 -6 0 -11 4 -11 9 0 5 -7
11 -15 15 -9 3 -15 0 -15 -8z"/>
<path d="M6844 2325 c-20 -15 -11 -18 20 -6 11 4 15 10 9 14 -5 3 -19 0 -29
-8z"/>
<path d="M6645 2300 c-3 -5 1 -10 9 -10 9 0 16 5 16 10 0 6 -4 10 -9 10 -6 0
-13 -4 -16 -10z"/>
<path d="M6363 953 c13 -3 17 -15 17 -49 0 -24 5 -44 10 -44 6 0 10 18 10 40
0 27 6 42 18 49 13 8 7 10 -28 10 -25 -1 -37 -3 -27 -6z"/>
<path d="M6450 910 c0 -57 20 -69 21 -12 l1 37 12 -35 c7 -19 17 -35 21 -35 5
0 13 16 19 35 l10 35 4 -37 c5 -56 22 -46 22 12 0 61 -20 68 -42 13 l-14 -38
-13 38 c-19 55 -41 49 -41 -13z"/>
</g>
</svg>
